%TF.GenerationSoftware,KiCad,Pcbnew,(5.99.0-10712-g3100cd3599)*%
%TF.CreationDate,2021-06-04T21:59:02-04:00*%
%TF.ProjectId,VX8Battery,56583842-6174-4746-9572-792e6b696361,rev?*%
%TF.SameCoordinates,Original*%
%TF.FileFunction,Paste,Top*%
%TF.FilePolarity,Positive*%
%FSLAX46Y46*%
G04 Gerber Fmt 4.6, Leading zero omitted, Abs format (unit mm)*
G04 Created by KiCad (PCBNEW (5.99.0-10712-g3100cd3599)) date 2021-06-04 21:59:02*
%MOMM*%
%LPD*%
G01*
G04 APERTURE LIST*
G04 Aperture macros list*
%AMRoundRect*
0 Rectangle with rounded corners*
0 $1 Rounding radius*
0 $2 $3 $4 $5 $6 $7 $8 $9 X,Y pos of 4 corners*
0 Add a 4 corners polygon primitive as box body*
4,1,4,$2,$3,$4,$5,$6,$7,$8,$9,$2,$3,0*
0 Add four circle primitives for the rounded corners*
1,1,$1+$1,$2,$3*
1,1,$1+$1,$4,$5*
1,1,$1+$1,$6,$7*
1,1,$1+$1,$8,$9*
0 Add four rect primitives between the rounded corners*
20,1,$1+$1,$2,$3,$4,$5,0*
20,1,$1+$1,$4,$5,$6,$7,0*
20,1,$1+$1,$6,$7,$8,$9,0*
20,1,$1+$1,$8,$9,$2,$3,0*%
%AMOutline5P*
0 Free polygon, 5 corners , with rotation*
0 The origin of the aperture is its center*
0 number of corners: always 8*
0 $1 to $10 corner X, Y*
0 $11 Rotation angle, in degrees counterclockwise*
0 create outline with 8 corners*
4,1,5,$1,$2,$3,$4,$5,$6,$7,$8,$9,$10,$1,$2,$11*%
%AMOutline6P*
0 Free polygon, 6 corners , with rotation*
0 The origin of the aperture is its center*
0 number of corners: always 6*
0 $1 to $12 corner X, Y*
0 $13 Rotation angle, in degrees counterclockwise*
0 create outline with 6 corners*
4,1,6,$1,$2,$3,$4,$5,$6,$7,$8,$9,$10,$11,$12,$1,$2,$13*%
%AMOutline7P*
0 Free polygon, 7 corners , with rotation*
0 The origin of the aperture is its center*
0 number of corners: always 7*
0 $1 to $14 corner X, Y*
0 $15 Rotation angle, in degrees counterclockwise*
0 create outline with 7 corners*
4,1,7,$1,$2,$3,$4,$5,$6,$7,$8,$9,$10,$11,$12,$13,$14,$1,$2,$15*%
%AMOutline8P*
0 Free polygon, 8 corners , with rotation*
0 The origin of the aperture is its center*
0 number of corners: always 8*
0 $1 to $16 corner X, Y*
0 $17 Rotation angle, in degrees counterclockwise*
0 create outline with 8 corners*
4,1,8,$1,$2,$3,$4,$5,$6,$7,$8,$9,$10,$11,$12,$13,$14,$15,$16,$1,$2,$17*%
%AMFreePoly0*
4,1,65,1.788583,1.342819,1.807681,1.284040,1.807681,0.377294,1.788583,0.318515,1.738583,0.282188,1.714447,0.282188,1.570262,0.258952,1.276797,0.177123,0.996943,0.058675,0.734571,-0.094646,0.494004,-0.280312,0.279199,-0.495269,0.093702,-0.735972,-0.059429,-0.998449,-0.177680,-1.278392,-0.259298,-1.571911,-0.282188,-1.714594,-0.282188,-1.738583,-0.318515,-1.788583,-0.377294,-1.807681,
-1.284040,-1.807681,-1.342819,-1.788583,-1.379146,-1.738583,-1.379146,-1.676779,-1.375388,-1.671606,-1.355611,-1.507056,-1.353581,-1.502673,-1.354046,-1.497864,-1.271662,-1.125612,-1.268836,-1.120811,-1.268741,-1.115244,-1.144746,-0.754711,-1.141397,-0.750263,-1.140672,-0.744741,-0.976661,-0.400562,-0.972828,-0.396520,-0.971483,-0.391116,-0.769564,-0.067717,-0.765299,-0.064135,-0.763350,-0.058918,
-0.526119,0.239544,-0.521477,0.242619,-0.518950,0.247583,-0.249457,0.517272,-0.244496,0.519802,-0.241424,0.524447,0.056866,0.761895,0.062082,0.763847,0.065660,0.768115,0.388913,0.970269,0.394316,0.971618,0.398355,0.975454,0.742415,1.139715,0.747935,1.140444,0.752382,1.143797,1.112825,1.268054,1.118392,1.268153,1.123190,1.270982,1.495381,1.353637,1.500191,1.353176,
1.504572,1.355209,1.671639,1.375412,1.676779,1.379146,1.738583,1.379146,1.788583,1.342819,1.788583,1.342819,$1*%
%AMFreePoly1*
4,1,65,-0.318515,1.788583,-0.282188,1.738583,-0.282188,1.714447,-0.258952,1.570264,-0.177123,1.276799,-0.058675,0.996943,0.094643,0.734574,0.280312,0.494004,0.495265,0.279204,0.735977,0.093698,0.998449,-0.059429,1.278392,-0.177680,1.571911,-0.259298,1.714594,-0.282188,1.738583,-0.282188,1.788583,-0.318515,1.807681,-0.377294,1.807681,-1.284040,1.788583,-1.342819,1.738583,-1.379146,
1.676779,-1.379146,1.671606,-1.375388,1.507056,-1.355611,1.502673,-1.353581,1.497864,-1.354046,1.125612,-1.271662,1.120813,-1.268837,1.115244,-1.268742,0.754712,-1.144746,0.750263,-1.141396,0.744740,-1.140671,0.400562,-0.976661,0.396520,-0.972828,0.391116,-0.971483,0.067717,-0.769564,0.064135,-0.765299,0.058918,-0.763350,-0.239544,-0.526119,-0.242619,-0.521476,-0.247582,-0.518950,
-0.517272,-0.249458,-0.519803,-0.244496,-0.524447,-0.241424,-0.761895,0.056866,-0.763847,0.062082,-0.768116,0.065661,-0.970269,0.388913,-0.971618,0.394316,-0.975454,0.398355,-1.139715,0.742414,-1.140444,0.747936,-1.143797,0.752382,-1.268054,1.112824,-1.268153,1.118393,-1.270982,1.123191,-1.353637,1.495381,-1.353176,1.500191,-1.355209,1.504572,-1.375412,1.671639,-1.379146,1.676779,
-1.379146,1.738583,-1.342819,1.788583,-1.284040,1.807681,-0.377294,1.807681,-0.318515,1.788583,-0.318515,1.788583,$1*%
%AMFreePoly2*
4,1,65,-1.671606,1.375388,-1.507056,1.355611,-1.502673,1.353581,-1.497864,1.354046,-1.125612,1.271662,-1.120811,1.268836,-1.115244,1.268741,-0.754711,1.144746,-0.750263,1.141397,-0.744741,1.140672,-0.400562,0.976661,-0.396520,0.972828,-0.391116,0.971483,-0.067717,0.769564,-0.064135,0.765299,-0.058918,0.763350,0.239544,0.526119,0.242619,0.521477,0.247583,0.518950,0.517272,0.249457,
0.519802,0.244496,0.524447,0.241424,0.761895,-0.056866,0.763847,-0.062082,0.768115,-0.065660,0.970269,-0.388913,0.971618,-0.394316,0.975454,-0.398355,1.139715,-0.742415,1.140444,-0.747935,1.143797,-0.752382,1.268054,-1.112825,1.268153,-1.118392,1.270982,-1.123190,1.353637,-1.495381,1.353176,-1.500191,1.355209,-1.504572,1.375412,-1.671639,1.379146,-1.676779,1.379146,-1.738583,
1.342819,-1.788583,1.284040,-1.807681,0.377294,-1.807681,0.318515,-1.788583,0.282188,-1.738583,0.282188,-1.714447,0.258952,-1.570262,0.177123,-1.276797,0.058675,-0.996943,-0.094646,-0.734571,-0.280312,-0.494004,-0.495269,-0.279199,-0.735972,-0.093702,-0.998449,0.059429,-1.278392,0.177680,-1.571911,0.259298,-1.714594,0.282188,-1.738583,0.282188,-1.788583,0.318515,-1.807681,0.377294,
-1.807681,1.284040,-1.788583,1.342819,-1.738583,1.379146,-1.676779,1.379146,-1.671606,1.375388,-1.671606,1.375388,$1*%
%AMFreePoly3*
4,1,65,1.342819,1.788583,1.379146,1.738583,1.379146,1.676779,1.375388,1.671606,1.355611,1.507056,1.353581,1.502673,1.354046,1.497864,1.271662,1.125612,1.268837,1.120813,1.268742,1.115244,1.144746,0.754712,1.141396,0.750263,1.140671,0.744740,0.976661,0.400562,0.972828,0.396520,0.971483,0.391116,0.769564,0.067717,0.765299,0.064135,0.763350,0.058918,0.526119,-0.239544,
0.521476,-0.242619,0.518950,-0.247582,0.249458,-0.517272,0.244496,-0.519803,0.241424,-0.524447,-0.056866,-0.761895,-0.062082,-0.763847,-0.065661,-0.768116,-0.388913,-0.970269,-0.394316,-0.971618,-0.398355,-0.975454,-0.742414,-1.139715,-0.747936,-1.140444,-0.752382,-1.143797,-1.112824,-1.268054,-1.118393,-1.268153,-1.123191,-1.270982,-1.495381,-1.353637,-1.500191,-1.353176,-1.504572,-1.355209,
-1.671639,-1.375412,-1.676779,-1.379146,-1.738583,-1.379146,-1.788583,-1.342819,-1.807681,-1.284040,-1.807681,-0.377294,-1.788583,-0.318515,-1.738583,-0.282188,-1.714447,-0.282188,-1.570264,-0.258952,-1.276799,-0.177123,-0.996943,-0.058675,-0.734574,0.094643,-0.494004,0.280312,-0.279204,0.495265,-0.093698,0.735977,0.059429,0.998449,0.177680,1.278392,0.259298,1.571911,0.282188,1.714594,
0.282188,1.738583,0.318515,1.788583,0.377294,1.807681,1.284040,1.807681,1.342819,1.788583,1.342819,1.788583,$1*%
G04 Aperture macros list end*
%ADD10RoundRect,0.200000X-0.200000X-0.275000X0.200000X-0.275000X0.200000X0.275000X-0.200000X0.275000X0*%
%ADD11RoundRect,0.200000X0.275000X-0.200000X0.275000X0.200000X-0.275000X0.200000X-0.275000X-0.200000X0*%
%ADD12Outline8P,0.460000X-0.100000X-0.460000X-0.100000X-0.500000X-0.060000X-0.500000X0.060000X-0.460000X0.100000X0.460000X0.100000X0.500000X0.060000X0.500000X-0.060000X180.000000*%
%ADD13R,1.000000X0.200000*%
%ADD14R,0.200000X0.700000*%
%ADD15FreePoly0,0.000000*%
%ADD16FreePoly1,0.000000*%
%ADD17FreePoly2,0.000000*%
%ADD18FreePoly3,0.000000*%
%ADD19R,2.000000X0.900000*%
%ADD20R,2.000000X0.800000*%
%ADD21R,2.000000X0.700000*%
%ADD22R,2.000000X0.721718*%
%ADD23RoundRect,0.250000X-0.325000X-1.100000X0.325000X-1.100000X0.325000X1.100000X-0.325000X1.100000X0*%
%ADD24RoundRect,0.200000X0.200000X0.275000X-0.200000X0.275000X-0.200000X-0.275000X0.200000X-0.275000X0*%
%ADD25RoundRect,0.225000X0.250000X-0.225000X0.250000X0.225000X-0.250000X0.225000X-0.250000X-0.225000X0*%
%ADD26RoundRect,0.200000X-0.275000X0.200000X-0.275000X-0.200000X0.275000X-0.200000X0.275000X0.200000X0*%
%ADD27RoundRect,0.250000X0.475000X-0.250000X0.475000X0.250000X-0.475000X0.250000X-0.475000X-0.250000X0*%
%ADD28RoundRect,0.218750X-0.256250X0.218750X-0.256250X-0.218750X0.256250X-0.218750X0.256250X0.218750X0*%
%ADD29RoundRect,0.250000X0.325000X1.100000X-0.325000X1.100000X-0.325000X-1.100000X0.325000X-1.100000X0*%
%ADD30R,2.400000X4.200000*%
%ADD31RoundRect,0.250000X-0.325000X-0.650000X0.325000X-0.650000X0.325000X0.650000X-0.325000X0.650000X0*%
G04 APERTURE END LIST*
D10*
%TO.C,R1*%
X72175000Y-110500000D03*
X73825000Y-110500000D03*
%TD*%
D11*
%TO.C,R9*%
X77300000Y-90525000D03*
X77300000Y-88875000D03*
%TD*%
D12*
%TO.C,U1*%
X75850000Y-100800000D03*
D13*
X75850000Y-100400000D03*
X75850000Y-100000000D03*
X75850000Y-99600000D03*
D14*
X75800000Y-98750000D03*
X75400000Y-98750000D03*
X75000000Y-98750000D03*
X74600000Y-98750000D03*
X74200000Y-98750000D03*
D13*
X74150000Y-99600000D03*
X74150000Y-100000000D03*
X74150000Y-100400000D03*
X74150000Y-100800000D03*
D14*
X74200000Y-101650000D03*
X74600000Y-101650000D03*
X75000000Y-101650000D03*
X75400000Y-101650000D03*
X75800000Y-101650000D03*
%TD*%
D10*
%TO.C,R10*%
X74025000Y-90500000D03*
X75675000Y-90500000D03*
%TD*%
D15*
%TO.C,H1*%
X72942319Y-81942319D03*
D16*
X72942319Y-86057681D03*
D17*
X77057681Y-81942319D03*
D18*
X77057681Y-86057681D03*
%TD*%
D19*
%TO.C,J1*%
X74200000Y-120750000D03*
D20*
X74200000Y-119520000D03*
D21*
X74200000Y-118500000D03*
D22*
X74200000Y-117500000D03*
D20*
X74200000Y-116480000D03*
D19*
X74200000Y-115250000D03*
%TD*%
D11*
%TO.C,R8*%
X78000000Y-96375000D03*
X78000000Y-94725000D03*
%TD*%
D15*
%TO.C,H3*%
X72942319Y-64942319D03*
D16*
X72942319Y-69057681D03*
D17*
X77057681Y-64942319D03*
D18*
X77057681Y-69057681D03*
%TD*%
D23*
%TO.C,C5*%
X73375000Y-93000000D03*
X76325000Y-93000000D03*
%TD*%
D24*
%TO.C,R11*%
X75675000Y-88950000D03*
X74025000Y-88950000D03*
%TD*%
D25*
%TO.C,C2*%
X77900000Y-99425000D03*
X77900000Y-97875000D03*
%TD*%
D26*
%TO.C,R5*%
X70200000Y-100975000D03*
X70200000Y-102625000D03*
%TD*%
D27*
%TO.C,C4*%
X71000000Y-96250000D03*
X71000000Y-94350000D03*
%TD*%
D11*
%TO.C,R3*%
X70250000Y-108775000D03*
X70250000Y-107125000D03*
%TD*%
%TO.C,R6*%
X70200000Y-99525000D03*
X70200000Y-97875000D03*
%TD*%
D10*
%TO.C,R2*%
X72175000Y-112000000D03*
X73825000Y-112000000D03*
%TD*%
D28*
%TO.C,D2*%
X72000000Y-97912500D03*
X72000000Y-99487500D03*
%TD*%
%TO.C,D1*%
X72000000Y-101012500D03*
X72000000Y-102587500D03*
%TD*%
D29*
%TO.C,C1*%
X78975000Y-111050000D03*
X76025000Y-111050000D03*
%TD*%
D11*
%TO.C,R7*%
X77900000Y-102775000D03*
X77900000Y-101125000D03*
%TD*%
D15*
%TO.C,H2*%
X72942319Y-128692319D03*
D16*
X72942319Y-132807681D03*
D17*
X77057681Y-128692319D03*
D18*
X77057681Y-132807681D03*
%TD*%
D30*
%TO.C,L1*%
X77250000Y-106400000D03*
X72750000Y-106400000D03*
%TD*%
D11*
%TO.C,R4*%
X70250000Y-105675000D03*
X70250000Y-104025000D03*
%TD*%
D31*
%TO.C,C3*%
X73375000Y-95950000D03*
X76325000Y-95950000D03*
%TD*%
M02*
