%TF.GenerationSoftware,KiCad,Pcbnew,(5.99.0-10712-g3100cd3599)*%
%TF.CreationDate,2021-06-04T21:59:02-04:00*%
%TF.ProjectId,VX8Battery,56583842-6174-4746-9572-792e6b696361,rev?*%
%TF.SameCoordinates,Original*%
%TF.FileFunction,Copper,L2,Bot*%
%TF.FilePolarity,Positive*%
%FSLAX46Y46*%
G04 Gerber Fmt 4.6, Leading zero omitted, Abs format (unit mm)*
G04 Created by KiCad (PCBNEW (5.99.0-10712-g3100cd3599)) date 2021-06-04 21:59:02*
%MOMM*%
%LPD*%
G01*
G04 APERTURE LIST*
%TA.AperFunction,ComponentPad*%
%ADD10O,3.000000X5.000000*%
%TD*%
%TA.AperFunction,ComponentPad*%
%ADD11C,3.000000*%
%TD*%
%TA.AperFunction,ComponentPad*%
%ADD12C,1.400000*%
%TD*%
%TA.AperFunction,ComponentPad*%
%ADD13O,1.400000X1.400000*%
%TD*%
%TA.AperFunction,WasherPad*%
%ADD14C,4.220000*%
%TD*%
%TA.AperFunction,ComponentPad*%
%ADD15O,1.700000X1.000000*%
%TD*%
%TA.AperFunction,SMDPad,CuDef*%
%ADD16C,4.000000*%
%TD*%
%TA.AperFunction,ViaPad*%
%ADD17C,0.500000*%
%TD*%
%TA.AperFunction,ViaPad*%
%ADD18C,0.800000*%
%TD*%
%TA.AperFunction,Conductor*%
%ADD19C,0.160000*%
%TD*%
%TA.AperFunction,Conductor*%
%ADD20C,0.200000*%
%TD*%
%TA.AperFunction,Conductor*%
%ADD21C,0.500000*%
%TD*%
G04 APERTURE END LIST*
D10*
%TO.P,BT2,1,+*%
%TO.N,Net-(BT1-Pad2)*%
X60000000Y-70100000D03*
D11*
X62540000Y-78900000D03*
X57460000Y-78900000D03*
D10*
%TO.P,BT2,2,-*%
%TO.N,GND*%
X60000000Y-134600000D03*
D11*
X57460000Y-126100000D03*
X62540000Y-126100000D03*
%TD*%
D10*
%TO.P,BT1,1,+*%
%TO.N,+BATT*%
X90000000Y-70100000D03*
D11*
X92540000Y-78900000D03*
X87460000Y-78900000D03*
D10*
%TO.P,BT1,2,-*%
%TO.N,Net-(BT1-Pad2)*%
X90000000Y-134600000D03*
D11*
X87460000Y-126100000D03*
X92540000Y-126100000D03*
%TD*%
D12*
%TO.P,TH1,1*%
%TO.N,Net-(R11-Pad2)*%
X70950000Y-89180000D03*
D13*
%TO.P,TH1,2*%
%TO.N,GND*%
X70950000Y-91720000D03*
%TD*%
D14*
%TO.P,H1,*%
%TO.N,*%
X75000000Y-84000000D03*
%TD*%
D15*
%TO.P,J1,1,SHEILD*%
%TO.N,GND*%
X74990000Y-122320000D03*
%TO.P,J1,8,SHEILD*%
X74990000Y-113680000D03*
%TD*%
D14*
%TO.P,H3,*%
%TO.N,*%
X75000000Y-67000000D03*
%TD*%
D16*
%TO.P,J2,1,Pin_1*%
%TO.N,+BATT*%
X70000000Y-75000000D03*
%TO.P,J2,3,Pin_3*%
%TO.N,GND*%
X80000000Y-75000000D03*
%TD*%
D14*
%TO.P,H2,*%
%TO.N,*%
X75000000Y-130750000D03*
%TD*%
D17*
%TO.N,GND*%
X74900000Y-107500000D03*
X74900000Y-104400000D03*
X72100000Y-103600000D03*
%TO.N,+BATT*%
X73200000Y-91400000D03*
%TO.N,GND*%
X77850000Y-101750000D03*
X70900000Y-103800000D03*
X75650000Y-120750000D03*
X77300000Y-78050000D03*
X74850000Y-111050000D03*
X73559500Y-101655068D03*
X75400000Y-95600000D03*
X77400000Y-92700000D03*
X68900000Y-105750000D03*
X75600000Y-115250000D03*
X77950000Y-84000000D03*
X71000000Y-93500000D03*
X77100000Y-96050000D03*
%TO.N,VCC*%
X76650000Y-98450000D03*
X72000000Y-96400000D03*
%TO.N,Net-(U1-Pad18)*%
X76100000Y-102550000D03*
X72149473Y-101691579D03*
%TO.N,Net-(R3-Pad2)*%
X75400000Y-96950000D03*
X69309500Y-96130653D03*
%TO.N,Net-(U1-Pad16)*%
X74400000Y-103100000D03*
X71100000Y-102500000D03*
D18*
%TO.N,Net-(R7-Pad1)*%
X77950000Y-103250000D03*
D17*
X75400000Y-103150000D03*
%TO.N,Net-(R9-Pad1)*%
X74550000Y-91550000D03*
X76450000Y-91050000D03*
%TD*%
D19*
%TO.N,Net-(R3-Pad2)*%
X75400000Y-96950000D02*
X74350000Y-98000000D01*
X74350000Y-98000000D02*
X74200000Y-98000000D01*
%TO.N,GND*%
X77850000Y-101750000D02*
X77800000Y-101700000D01*
X73106510Y-101202078D02*
X73559500Y-101655068D01*
X73604432Y-101700000D02*
X73559500Y-101655068D01*
X71673460Y-101202078D02*
X73106510Y-101202078D01*
D20*
%TO.N,Net-(U1-Pad18)*%
X72591579Y-101691579D02*
X72149473Y-101691579D01*
D19*
%TO.N,GND*%
X70610499Y-103510499D02*
X70610499Y-102265039D01*
X70900000Y-103800000D02*
X70610499Y-103510499D01*
X77800000Y-101700000D02*
X73604432Y-101700000D01*
D20*
%TO.N,Net-(U1-Pad18)*%
X74224462Y-102550000D02*
X73450000Y-102550000D01*
X73450000Y-102550000D02*
X72591579Y-101691579D01*
D19*
%TO.N,GND*%
X70610499Y-102265039D02*
X71673460Y-101202078D01*
D20*
X74850000Y-111050000D02*
X74850000Y-107550000D01*
X74850000Y-107550000D02*
X74900000Y-107500000D01*
X72900000Y-104400000D02*
X72100000Y-103600000D01*
X74900000Y-104400000D02*
X72900000Y-104400000D01*
D21*
%TO.N,+BATT*%
X87700000Y-72100000D02*
X88460000Y-72860000D01*
X70000000Y-75000000D02*
X72900000Y-72100000D01*
X72650000Y-90850000D02*
X72650000Y-88200000D01*
X88460000Y-78400000D02*
X93540000Y-78400000D01*
X72900000Y-72100000D02*
X87700000Y-72100000D01*
X72650000Y-88200000D02*
X70000000Y-85550000D01*
X70000000Y-85550000D02*
X70000000Y-75000000D01*
X87700000Y-72100000D02*
X91000000Y-68800000D01*
X73200000Y-91400000D02*
X72650000Y-90850000D01*
X70000000Y-75850000D02*
X70000000Y-75000000D01*
X88460000Y-72860000D02*
X88460000Y-78400000D01*
%TO.N,GND*%
X77950000Y-78700000D02*
X77950000Y-84000000D01*
D19*
X78600000Y-97300000D02*
X77350000Y-96050000D01*
D21*
X77300000Y-77700000D02*
X80000000Y-75000000D01*
D19*
X78600000Y-100300000D02*
X78600000Y-97300000D01*
X77100000Y-96050000D02*
X75350000Y-96050000D01*
X75350000Y-96050000D02*
X73550000Y-96050000D01*
D21*
X75600000Y-120700000D02*
X75650000Y-120750000D01*
X77300000Y-78050000D02*
X77950000Y-78700000D01*
D19*
X75350000Y-96050000D02*
X75350000Y-95650000D01*
D21*
X77350000Y-78100000D02*
X77300000Y-78050000D01*
D19*
X75350000Y-95650000D02*
X75400000Y-95600000D01*
X77350000Y-96050000D02*
X77100000Y-96050000D01*
X77850000Y-101050000D02*
X78600000Y-100300000D01*
X73550000Y-96050000D02*
X71000000Y-93500000D01*
X77850000Y-101750000D02*
X77850000Y-101050000D01*
D21*
X68900000Y-105750000D02*
X68950000Y-105750000D01*
X75600000Y-115250000D02*
X75600000Y-120700000D01*
X68950000Y-105750000D02*
X70900000Y-103800000D01*
X77300000Y-78050000D02*
X77300000Y-77700000D01*
D20*
%TO.N,VCC*%
X75600000Y-96400000D02*
X72000000Y-96400000D01*
X76650000Y-98450000D02*
X76200000Y-98000000D01*
X75700000Y-96400000D02*
X75600000Y-96400000D01*
X76200000Y-96900000D02*
X75700000Y-96400000D01*
X76200000Y-98000000D02*
X76200000Y-96900000D01*
D19*
%TO.N,Net-(U1-Pad18)*%
X76100000Y-102550000D02*
X74224462Y-102550000D01*
%TO.N,Net-(R3-Pad2)*%
X74200000Y-98000000D02*
X74362194Y-98000000D01*
X71178847Y-98000000D02*
X69309500Y-96130653D01*
X74200000Y-98000000D02*
X71178847Y-98000000D01*
D20*
%TO.N,Net-(U1-Pad16)*%
X73000000Y-102900000D02*
X73200000Y-103100000D01*
X71100000Y-102500000D02*
X72600000Y-102500000D01*
X73200000Y-103100000D02*
X74400000Y-103100000D01*
X72600000Y-102500000D02*
X73000000Y-102900000D01*
%TO.N,Net-(R7-Pad1)*%
X77950000Y-103250000D02*
X77850000Y-103350000D01*
X75500000Y-103250000D02*
X75400000Y-103150000D01*
X77950000Y-103250000D02*
X75500000Y-103250000D01*
D19*
%TO.N,Net-(R9-Pad1)*%
X75950000Y-91550000D02*
X76450000Y-91050000D01*
X74550000Y-91550000D02*
X75950000Y-91550000D01*
%TD*%
%TA.AperFunction,Conductor*%
%TO.N,GND*%
G36*
X72500824Y-65920002D02*
G01*
X72547317Y-65973658D01*
X72557421Y-66043932D01*
X72549112Y-66074218D01*
X72519432Y-66145872D01*
X72518402Y-66149587D01*
X72434860Y-66450828D01*
X72434858Y-66450836D01*
X72433830Y-66454544D01*
X72386483Y-66771347D01*
X72386383Y-66775180D01*
X72386382Y-66775187D01*
X72383530Y-66884125D01*
X72378098Y-67091559D01*
X72378466Y-67095378D01*
X72378466Y-67095385D01*
X72397233Y-67290278D01*
X72408800Y-67410406D01*
X72478130Y-67723135D01*
X72585056Y-68025083D01*
X72727982Y-68311750D01*
X72730097Y-68314946D01*
X72730102Y-68314954D01*
X72796698Y-68415569D01*
X72904780Y-68578862D01*
X73112812Y-68822436D01*
X73348978Y-69038842D01*
X73609757Y-69224854D01*
X73891261Y-69377698D01*
X73894837Y-69379106D01*
X73894842Y-69379109D01*
X74093056Y-69457188D01*
X74189294Y-69495097D01*
X74193014Y-69496059D01*
X74193017Y-69496060D01*
X74237330Y-69507520D01*
X74499413Y-69575299D01*
X74503232Y-69575802D01*
X74503233Y-69575802D01*
X74813177Y-69616607D01*
X74813185Y-69616608D01*
X74816994Y-69617109D01*
X74820839Y-69617143D01*
X74820845Y-69617143D01*
X74968753Y-69618434D01*
X75137303Y-69619905D01*
X75141119Y-69619470D01*
X75141123Y-69619470D01*
X75344733Y-69596271D01*
X75455566Y-69583643D01*
X75767037Y-69508866D01*
X75770633Y-69507522D01*
X75770638Y-69507520D01*
X76063467Y-69398036D01*
X76063473Y-69398033D01*
X76067074Y-69396687D01*
X76070488Y-69394910D01*
X76070492Y-69394908D01*
X76347787Y-69250556D01*
X76347790Y-69250554D01*
X76351202Y-69248778D01*
X76615188Y-69067346D01*
X76661576Y-69026306D01*
X76852224Y-68857635D01*
X76855095Y-68855095D01*
X77067346Y-68615188D01*
X77248778Y-68351202D01*
X77269316Y-68311750D01*
X77394908Y-68070492D01*
X77394910Y-68070488D01*
X77396687Y-68067074D01*
X77410757Y-68029444D01*
X77507520Y-67770638D01*
X77507522Y-67770633D01*
X77508866Y-67767037D01*
X77583643Y-67455566D01*
X77602224Y-67292483D01*
X77619594Y-67140035D01*
X77619594Y-67140029D01*
X77619905Y-67137303D01*
X77623500Y-67000000D01*
X77603945Y-66680276D01*
X77545571Y-66365318D01*
X77450530Y-66063888D01*
X77449122Y-65992907D01*
X77486313Y-65932431D01*
X77550296Y-65901663D01*
X77570698Y-65900000D01*
X96974000Y-65900000D01*
X97042121Y-65920002D01*
X97088614Y-65973658D01*
X97100000Y-66026000D01*
X97100000Y-139174000D01*
X97079998Y-139242121D01*
X97026342Y-139288614D01*
X96974000Y-139300000D01*
X52726000Y-139300000D01*
X52657879Y-139279998D01*
X52611386Y-139226342D01*
X52600000Y-139174000D01*
X52600000Y-134867548D01*
X57992000Y-134867548D01*
X57992000Y-135669310D01*
X57992153Y-135673695D01*
X58006283Y-135875770D01*
X58007503Y-135884451D01*
X58064066Y-136150557D01*
X58066485Y-136158994D01*
X58159529Y-136414628D01*
X58163100Y-136422648D01*
X58290809Y-136662835D01*
X58295468Y-136670291D01*
X58455364Y-136890368D01*
X58461011Y-136897098D01*
X58649986Y-137092789D01*
X58656508Y-137098660D01*
X58870879Y-137266145D01*
X58878152Y-137271051D01*
X59113747Y-137407071D01*
X59121639Y-137410920D01*
X59373866Y-137512828D01*
X59382224Y-137515543D01*
X59646177Y-137581354D01*
X59654819Y-137582878D01*
X59727985Y-137590568D01*
X59742636Y-137587888D01*
X59746000Y-137575569D01*
X59746000Y-134872115D01*
X59744659Y-134867548D01*
X60254000Y-134867548D01*
X60254000Y-137576173D01*
X60257779Y-137589042D01*
X60272845Y-137590965D01*
X60482666Y-137553967D01*
X60491167Y-137551848D01*
X60749894Y-137467782D01*
X60758041Y-137464491D01*
X61002549Y-137345236D01*
X61010145Y-137340850D01*
X61235676Y-137188728D01*
X61242599Y-137183320D01*
X61444769Y-137001284D01*
X61450853Y-136994984D01*
X61625723Y-136786582D01*
X61630883Y-136779480D01*
X61775047Y-136548770D01*
X61779159Y-136541036D01*
X61889814Y-136292501D01*
X61892813Y-136284260D01*
X61967799Y-136022753D01*
X61969623Y-136014173D01*
X62007388Y-135745455D01*
X62008000Y-135736706D01*
X62008000Y-134872115D01*
X62003525Y-134856876D01*
X62002135Y-134855671D01*
X61994452Y-134854000D01*
X60272115Y-134854000D01*
X60256876Y-134858475D01*
X60255671Y-134859865D01*
X60254000Y-134867548D01*
X59744659Y-134867548D01*
X59741525Y-134856876D01*
X59740135Y-134855671D01*
X59732452Y-134854000D01*
X58010115Y-134854000D01*
X57994876Y-134858475D01*
X57993671Y-134859865D01*
X57992000Y-134867548D01*
X52600000Y-134867548D01*
X52600000Y-133463294D01*
X57992000Y-133463294D01*
X57992000Y-134327885D01*
X57996475Y-134343124D01*
X57997865Y-134344329D01*
X58005548Y-134346000D01*
X59727885Y-134346000D01*
X59743124Y-134341525D01*
X59744329Y-134340135D01*
X59746000Y-134332452D01*
X59746000Y-131624431D01*
X60254000Y-131624431D01*
X60254000Y-134327885D01*
X60258475Y-134343124D01*
X60259865Y-134344329D01*
X60267548Y-134346000D01*
X61989885Y-134346000D01*
X62005124Y-134341525D01*
X62006329Y-134340135D01*
X62008000Y-134332452D01*
X62008000Y-133530690D01*
X62007847Y-133526305D01*
X62003132Y-133458869D01*
X87991500Y-133458869D01*
X87991500Y-135671504D01*
X88006095Y-135880225D01*
X88064500Y-136154996D01*
X88066003Y-136159125D01*
X88066004Y-136159129D01*
X88158998Y-136414628D01*
X88160576Y-136418964D01*
X88162644Y-136422854D01*
X88162647Y-136422860D01*
X88290385Y-136663100D01*
X88290389Y-136663106D01*
X88292455Y-136666992D01*
X88295042Y-136670552D01*
X88295044Y-136670556D01*
X88454747Y-136890368D01*
X88457570Y-136894253D01*
X88460626Y-136897417D01*
X88460628Y-136897420D01*
X88560929Y-137001284D01*
X88652706Y-137096322D01*
X88656170Y-137099028D01*
X88656174Y-137099032D01*
X88764058Y-137183320D01*
X88874065Y-137269267D01*
X88998050Y-137340850D01*
X89113520Y-137407517D01*
X89113525Y-137407520D01*
X89117340Y-137409722D01*
X89121424Y-137411372D01*
X89121430Y-137411375D01*
X89261044Y-137467782D01*
X89377794Y-137514952D01*
X89650359Y-137582910D01*
X89654727Y-137583369D01*
X89654732Y-137583370D01*
X89925361Y-137611814D01*
X89925364Y-137611814D01*
X89929730Y-137612273D01*
X89934118Y-137612120D01*
X89934124Y-137612120D01*
X90206071Y-137602624D01*
X90206078Y-137602623D01*
X90210468Y-137602470D01*
X90214792Y-137601707D01*
X90214797Y-137601707D01*
X90363029Y-137575569D01*
X90487110Y-137553690D01*
X90754270Y-137466885D01*
X90758223Y-137464957D01*
X90758228Y-137464955D01*
X90876907Y-137407071D01*
X91006750Y-137343742D01*
X91010389Y-137341287D01*
X91010395Y-137341284D01*
X91235988Y-137189119D01*
X91239634Y-137186660D01*
X91448391Y-136998695D01*
X91539288Y-136890368D01*
X91626128Y-136786877D01*
X91626132Y-136786872D01*
X91628956Y-136783506D01*
X91777815Y-136545281D01*
X91892071Y-136288658D01*
X91969500Y-136018630D01*
X91970127Y-136014173D01*
X92007888Y-135745483D01*
X92008500Y-135741131D01*
X92008500Y-133528496D01*
X92003327Y-133454517D01*
X91994212Y-133324160D01*
X91994211Y-133324155D01*
X91993905Y-133319775D01*
X91935500Y-133045004D01*
X91933996Y-133040871D01*
X91840933Y-132785181D01*
X91840931Y-132785177D01*
X91839424Y-132781036D01*
X91837356Y-132777146D01*
X91837353Y-132777140D01*
X91709615Y-132536900D01*
X91709611Y-132536894D01*
X91707545Y-132533008D01*
X91620444Y-132413123D01*
X91545019Y-132309310D01*
X91545017Y-132309307D01*
X91542430Y-132305747D01*
X91539372Y-132302580D01*
X91350348Y-132106840D01*
X91350344Y-132106837D01*
X91347294Y-132103678D01*
X91343830Y-132100972D01*
X91343826Y-132100968D01*
X91129401Y-131933441D01*
X91129402Y-131933441D01*
X91125935Y-131930733D01*
X90993603Y-131854331D01*
X90886480Y-131792483D01*
X90886475Y-131792480D01*
X90882660Y-131790278D01*
X90878576Y-131788628D01*
X90878570Y-131788625D01*
X90626287Y-131686697D01*
X90622206Y-131685048D01*
X90349641Y-131617090D01*
X90345273Y-131616631D01*
X90345268Y-131616630D01*
X90074639Y-131588186D01*
X90074636Y-131588186D01*
X90070270Y-131587727D01*
X90065882Y-131587880D01*
X90065876Y-131587880D01*
X89793929Y-131597376D01*
X89793922Y-131597377D01*
X89789532Y-131597530D01*
X89785208Y-131598293D01*
X89785203Y-131598293D01*
X89640396Y-131623827D01*
X89512890Y-131646310D01*
X89245730Y-131733115D01*
X89241777Y-131735043D01*
X89241772Y-131735045D01*
X89159683Y-131775083D01*
X88993250Y-131856258D01*
X88989611Y-131858713D01*
X88989605Y-131858716D01*
X88832788Y-131964491D01*
X88760366Y-132013340D01*
X88551609Y-132201305D01*
X88474747Y-132292906D01*
X88373872Y-132413123D01*
X88373868Y-132413128D01*
X88371044Y-132416494D01*
X88222185Y-132654719D01*
X88107929Y-132911342D01*
X88030500Y-133181370D01*
X88029889Y-133185720D01*
X88029888Y-133185723D01*
X88021742Y-133243687D01*
X87991500Y-133458869D01*
X62003132Y-133458869D01*
X61993717Y-133324230D01*
X61992497Y-133315549D01*
X61935934Y-133049443D01*
X61933515Y-133041006D01*
X61840471Y-132785372D01*
X61836900Y-132777352D01*
X61709191Y-132537165D01*
X61704532Y-132529709D01*
X61544636Y-132309632D01*
X61538989Y-132302902D01*
X61350014Y-132107211D01*
X61343492Y-132101340D01*
X61129121Y-131933855D01*
X61121848Y-131928949D01*
X60886253Y-131792929D01*
X60878361Y-131789080D01*
X60626134Y-131687172D01*
X60617776Y-131684457D01*
X60353823Y-131618646D01*
X60345181Y-131617122D01*
X60272015Y-131609432D01*
X60257364Y-131612112D01*
X60254000Y-131624431D01*
X59746000Y-131624431D01*
X59746000Y-131623827D01*
X59742221Y-131610958D01*
X59727155Y-131609035D01*
X59517334Y-131646033D01*
X59508833Y-131648152D01*
X59250106Y-131732218D01*
X59241959Y-131735509D01*
X58997451Y-131854764D01*
X58989855Y-131859150D01*
X58764324Y-132011272D01*
X58757401Y-132016680D01*
X58555231Y-132198716D01*
X58549147Y-132205016D01*
X58374277Y-132413418D01*
X58369117Y-132420520D01*
X58224953Y-132651230D01*
X58220841Y-132658964D01*
X58110186Y-132907499D01*
X58107187Y-132915740D01*
X58032201Y-133177247D01*
X58030377Y-133185827D01*
X57992612Y-133454545D01*
X57992000Y-133463294D01*
X52600000Y-133463294D01*
X52600000Y-130841559D01*
X72378098Y-130841559D01*
X72378466Y-130845378D01*
X72378466Y-130845385D01*
X72408431Y-131156575D01*
X72408800Y-131160406D01*
X72478130Y-131473135D01*
X72585056Y-131775083D01*
X72727982Y-132061750D01*
X72730097Y-132064946D01*
X72730102Y-132064954D01*
X72822808Y-132205016D01*
X72904780Y-132328862D01*
X73112812Y-132572436D01*
X73348978Y-132788842D01*
X73609757Y-132974854D01*
X73891261Y-133127698D01*
X73894837Y-133129106D01*
X73894842Y-133129109D01*
X74038565Y-133185723D01*
X74189294Y-133245097D01*
X74193014Y-133246059D01*
X74193017Y-133246060D01*
X74237330Y-133257520D01*
X74499413Y-133325299D01*
X74503232Y-133325802D01*
X74503233Y-133325802D01*
X74813177Y-133366607D01*
X74813185Y-133366608D01*
X74816994Y-133367109D01*
X74820839Y-133367143D01*
X74820845Y-133367143D01*
X74968753Y-133368434D01*
X75137303Y-133369905D01*
X75141119Y-133369470D01*
X75141123Y-133369470D01*
X75344733Y-133346271D01*
X75455566Y-133333643D01*
X75767037Y-133258866D01*
X75770633Y-133257522D01*
X75770638Y-133257520D01*
X76063467Y-133148036D01*
X76063473Y-133148033D01*
X76067074Y-133146687D01*
X76070488Y-133144910D01*
X76070492Y-133144908D01*
X76347787Y-133000556D01*
X76347790Y-133000554D01*
X76351202Y-132998778D01*
X76615188Y-132817346D01*
X76855095Y-132605095D01*
X77018653Y-132420226D01*
X77064800Y-132368066D01*
X77064802Y-132368064D01*
X77067346Y-132365188D01*
X77248778Y-132101202D01*
X77269316Y-132061750D01*
X77394908Y-131820492D01*
X77394910Y-131820488D01*
X77396687Y-131817074D01*
X77405715Y-131792929D01*
X77507520Y-131520638D01*
X77507522Y-131520633D01*
X77508866Y-131517037D01*
X77583643Y-131205566D01*
X77619905Y-130887303D01*
X77623500Y-130750000D01*
X77603945Y-130430276D01*
X77545571Y-130115318D01*
X77449248Y-129809822D01*
X77355221Y-129603496D01*
X77318012Y-129521849D01*
X77318010Y-129521845D01*
X77316413Y-129518341D01*
X77314402Y-129515059D01*
X77151054Y-129248500D01*
X77151052Y-129248497D01*
X77149045Y-129245222D01*
X76949640Y-128994536D01*
X76721171Y-128770019D01*
X76718114Y-128767673D01*
X76470087Y-128577355D01*
X76470079Y-128577350D01*
X76467043Y-128575020D01*
X76264028Y-128455435D01*
X76194360Y-128414397D01*
X76194357Y-128414395D01*
X76191044Y-128412444D01*
X75897290Y-128284716D01*
X75893596Y-128283622D01*
X75893591Y-128283620D01*
X75759581Y-128243925D01*
X75590159Y-128193740D01*
X75274230Y-128140872D01*
X74954214Y-128126900D01*
X74794547Y-128139466D01*
X74638714Y-128151730D01*
X74638711Y-128151730D01*
X74634879Y-128152032D01*
X74320988Y-128215894D01*
X74169104Y-128266714D01*
X74020865Y-128316313D01*
X74020859Y-128316315D01*
X74017220Y-128317533D01*
X73728102Y-128455435D01*
X73724865Y-128457497D01*
X73724860Y-128457500D01*
X73627845Y-128519306D01*
X73457945Y-128627544D01*
X73454982Y-128629987D01*
X73454980Y-128629988D01*
X73213740Y-128828851D01*
X73213736Y-128828855D01*
X73210777Y-128831294D01*
X72990282Y-129063647D01*
X72799748Y-129321139D01*
X72797849Y-129324496D01*
X72688177Y-129518341D01*
X72642014Y-129599933D01*
X72519432Y-129895872D01*
X72518402Y-129899587D01*
X72434860Y-130200828D01*
X72434858Y-130200836D01*
X72433830Y-130204544D01*
X72386483Y-130521347D01*
X72378098Y-130841559D01*
X52600000Y-130841559D01*
X52600000Y-127689830D01*
X56234570Y-127689830D01*
X56244334Y-127702226D01*
X56449855Y-127840850D01*
X56457451Y-127845236D01*
X56701959Y-127964491D01*
X56710106Y-127967782D01*
X56968833Y-128051848D01*
X56977334Y-128053967D01*
X57245255Y-128101210D01*
X57253981Y-128102127D01*
X57525859Y-128111621D01*
X57534622Y-128111315D01*
X57805180Y-128082878D01*
X57813825Y-128081353D01*
X58077776Y-128015543D01*
X58086134Y-128012828D01*
X58338361Y-127910920D01*
X58346253Y-127907071D01*
X58581844Y-127771053D01*
X58589120Y-127766145D01*
X58674671Y-127699307D01*
X58681465Y-127689830D01*
X61314570Y-127689830D01*
X61324334Y-127702226D01*
X61529855Y-127840850D01*
X61537451Y-127845236D01*
X61781959Y-127964491D01*
X61790106Y-127967782D01*
X62048833Y-128051848D01*
X62057334Y-128053967D01*
X62325255Y-128101210D01*
X62333981Y-128102127D01*
X62605859Y-128111621D01*
X62614622Y-128111315D01*
X62885180Y-128082878D01*
X62893825Y-128081353D01*
X63157776Y-128015543D01*
X63166134Y-128012828D01*
X63418361Y-127910920D01*
X63426253Y-127907071D01*
X63661844Y-127771053D01*
X63669120Y-127766145D01*
X63754671Y-127699307D01*
X63763139Y-127687495D01*
X63756602Y-127675812D01*
X62552812Y-126472022D01*
X62538868Y-126464408D01*
X62537035Y-126464539D01*
X62530420Y-126468790D01*
X61320813Y-127678397D01*
X61314570Y-127689830D01*
X58681465Y-127689830D01*
X58683139Y-127687495D01*
X58676602Y-127675812D01*
X57472812Y-126472022D01*
X57458868Y-126464408D01*
X57457035Y-126464539D01*
X57450420Y-126468790D01*
X56240813Y-127678397D01*
X56234570Y-127689830D01*
X52600000Y-127689830D01*
X52600000Y-125963977D01*
X55451904Y-125963977D01*
X55451904Y-126236023D01*
X55452516Y-126244772D01*
X55490377Y-126514173D01*
X55492201Y-126522753D01*
X55567187Y-126784260D01*
X55570186Y-126792501D01*
X55680841Y-127041036D01*
X55684953Y-127048770D01*
X55829118Y-127279482D01*
X55834277Y-127286582D01*
X55859101Y-127316166D01*
X55871795Y-127324612D01*
X55882297Y-127318493D01*
X57087978Y-126112812D01*
X57094356Y-126101132D01*
X57824408Y-126101132D01*
X57824539Y-126102965D01*
X57828790Y-126109580D01*
X59035984Y-127316774D01*
X59048095Y-127323387D01*
X59059714Y-127314559D01*
X59164532Y-127170291D01*
X59169191Y-127162835D01*
X59296900Y-126922648D01*
X59300471Y-126914628D01*
X59393515Y-126658994D01*
X59395934Y-126650557D01*
X59452497Y-126384451D01*
X59453717Y-126375770D01*
X59472693Y-126104390D01*
X59472693Y-126095610D01*
X59463489Y-125963977D01*
X60531904Y-125963977D01*
X60531904Y-126236023D01*
X60532516Y-126244772D01*
X60570377Y-126514173D01*
X60572201Y-126522753D01*
X60647187Y-126784260D01*
X60650186Y-126792501D01*
X60760841Y-127041036D01*
X60764953Y-127048770D01*
X60909118Y-127279482D01*
X60914277Y-127286582D01*
X60939101Y-127316166D01*
X60951795Y-127324612D01*
X60962297Y-127318493D01*
X62167978Y-126112812D01*
X62174356Y-126101132D01*
X62904408Y-126101132D01*
X62904539Y-126102965D01*
X62908790Y-126109580D01*
X64115984Y-127316774D01*
X64128095Y-127323387D01*
X64139714Y-127314559D01*
X64244532Y-127170291D01*
X64249191Y-127162835D01*
X64376900Y-126922648D01*
X64380471Y-126914628D01*
X64473515Y-126658994D01*
X64475934Y-126650557D01*
X64532497Y-126384451D01*
X64533717Y-126375770D01*
X64552693Y-126104390D01*
X64552693Y-126095610D01*
X64543179Y-125959545D01*
X85451405Y-125959545D01*
X85451405Y-126240455D01*
X85452017Y-126244807D01*
X85489874Y-126514173D01*
X85490500Y-126518630D01*
X85567929Y-126788658D01*
X85682185Y-127045281D01*
X85831044Y-127283506D01*
X85833868Y-127286872D01*
X85833872Y-127286877D01*
X85864508Y-127323387D01*
X86011609Y-127498695D01*
X86220366Y-127686660D01*
X86224012Y-127689119D01*
X86449605Y-127841284D01*
X86449611Y-127841287D01*
X86453250Y-127843742D01*
X86583093Y-127907071D01*
X86701772Y-127964955D01*
X86701777Y-127964957D01*
X86705730Y-127966885D01*
X86972890Y-128053690D01*
X87098224Y-128075790D01*
X87245203Y-128101707D01*
X87245208Y-128101707D01*
X87249532Y-128102470D01*
X87253922Y-128102623D01*
X87253929Y-128102624D01*
X87525876Y-128112120D01*
X87525882Y-128112120D01*
X87530270Y-128112273D01*
X87534636Y-128111814D01*
X87534639Y-128111814D01*
X87805268Y-128083370D01*
X87805273Y-128083369D01*
X87809641Y-128082910D01*
X88082206Y-128014952D01*
X88198956Y-127967782D01*
X88338570Y-127911375D01*
X88338576Y-127911372D01*
X88342660Y-127909722D01*
X88346475Y-127907520D01*
X88346480Y-127907517D01*
X88461950Y-127840850D01*
X88585935Y-127769267D01*
X88611822Y-127749042D01*
X88803826Y-127599032D01*
X88803830Y-127599028D01*
X88807294Y-127596322D01*
X88901572Y-127498695D01*
X88999372Y-127397420D01*
X88999374Y-127397417D01*
X89002430Y-127394253D01*
X89005019Y-127390690D01*
X89164956Y-127170556D01*
X89164958Y-127170552D01*
X89167545Y-127166992D01*
X89169611Y-127163106D01*
X89169615Y-127163100D01*
X89297353Y-126922860D01*
X89297356Y-126922854D01*
X89299424Y-126918964D01*
X89301003Y-126914628D01*
X89393996Y-126659129D01*
X89393997Y-126659125D01*
X89395500Y-126654996D01*
X89453905Y-126380225D01*
X89463989Y-126236023D01*
X89473193Y-126104390D01*
X89473500Y-126100000D01*
X89472003Y-126078588D01*
X89463679Y-125959545D01*
X90531405Y-125959545D01*
X90531405Y-126240455D01*
X90532017Y-126244807D01*
X90569874Y-126514173D01*
X90570500Y-126518630D01*
X90647929Y-126788658D01*
X90762185Y-127045281D01*
X90911044Y-127283506D01*
X90913868Y-127286872D01*
X90913872Y-127286877D01*
X90944508Y-127323387D01*
X91091609Y-127498695D01*
X91300366Y-127686660D01*
X91304012Y-127689119D01*
X91529605Y-127841284D01*
X91529611Y-127841287D01*
X91533250Y-127843742D01*
X91663093Y-127907071D01*
X91781772Y-127964955D01*
X91781777Y-127964957D01*
X91785730Y-127966885D01*
X92052890Y-128053690D01*
X92178224Y-128075790D01*
X92325203Y-128101707D01*
X92325208Y-128101707D01*
X92329532Y-128102470D01*
X92333922Y-128102623D01*
X92333929Y-128102624D01*
X92605876Y-128112120D01*
X92605882Y-128112120D01*
X92610270Y-128112273D01*
X92614636Y-128111814D01*
X92614639Y-128111814D01*
X92885268Y-128083370D01*
X92885273Y-128083369D01*
X92889641Y-128082910D01*
X93162206Y-128014952D01*
X93278956Y-127967782D01*
X93418570Y-127911375D01*
X93418576Y-127911372D01*
X93422660Y-127909722D01*
X93426475Y-127907520D01*
X93426480Y-127907517D01*
X93541950Y-127840850D01*
X93665935Y-127769267D01*
X93691822Y-127749042D01*
X93883826Y-127599032D01*
X93883830Y-127599028D01*
X93887294Y-127596322D01*
X93981572Y-127498695D01*
X94079372Y-127397420D01*
X94079374Y-127397417D01*
X94082430Y-127394253D01*
X94085019Y-127390690D01*
X94244956Y-127170556D01*
X94244958Y-127170552D01*
X94247545Y-127166992D01*
X94249611Y-127163106D01*
X94249615Y-127163100D01*
X94377353Y-126922860D01*
X94377356Y-126922854D01*
X94379424Y-126918964D01*
X94381003Y-126914628D01*
X94473996Y-126659129D01*
X94473997Y-126659125D01*
X94475500Y-126654996D01*
X94533905Y-126380225D01*
X94543989Y-126236023D01*
X94553193Y-126104390D01*
X94553500Y-126100000D01*
X94552003Y-126078588D01*
X94534212Y-125824160D01*
X94534211Y-125824155D01*
X94533905Y-125819775D01*
X94475500Y-125545004D01*
X94428390Y-125415569D01*
X94380933Y-125285181D01*
X94380931Y-125285177D01*
X94379424Y-125281036D01*
X94377356Y-125277146D01*
X94377353Y-125277140D01*
X94249615Y-125036900D01*
X94249611Y-125036894D01*
X94247545Y-125033008D01*
X94160444Y-124913123D01*
X94085019Y-124809310D01*
X94085017Y-124809307D01*
X94082430Y-124805747D01*
X93984828Y-124704677D01*
X93890348Y-124606840D01*
X93890344Y-124606837D01*
X93887294Y-124603678D01*
X93883830Y-124600972D01*
X93883826Y-124600968D01*
X93669401Y-124433441D01*
X93669402Y-124433441D01*
X93665935Y-124430733D01*
X93427252Y-124292929D01*
X93426480Y-124292483D01*
X93426475Y-124292480D01*
X93422660Y-124290278D01*
X93418576Y-124288628D01*
X93418570Y-124288625D01*
X93166287Y-124186697D01*
X93162206Y-124185048D01*
X92889641Y-124117090D01*
X92885273Y-124116631D01*
X92885268Y-124116630D01*
X92614639Y-124088186D01*
X92614636Y-124088186D01*
X92610270Y-124087727D01*
X92605882Y-124087880D01*
X92605876Y-124087880D01*
X92333929Y-124097376D01*
X92333922Y-124097377D01*
X92329532Y-124097530D01*
X92325208Y-124098293D01*
X92325203Y-124098293D01*
X92178224Y-124124210D01*
X92052890Y-124146310D01*
X91785730Y-124233115D01*
X91781777Y-124235043D01*
X91781772Y-124235045D01*
X91671918Y-124288625D01*
X91533250Y-124356258D01*
X91529611Y-124358713D01*
X91529605Y-124358716D01*
X91372788Y-124464491D01*
X91300366Y-124513340D01*
X91091609Y-124701305D01*
X91088780Y-124704677D01*
X90913872Y-124913123D01*
X90913868Y-124913128D01*
X90911044Y-124916494D01*
X90762185Y-125154719D01*
X90647929Y-125411342D01*
X90570500Y-125681370D01*
X90569889Y-125685720D01*
X90569888Y-125685723D01*
X90555460Y-125788383D01*
X90531405Y-125959545D01*
X89463679Y-125959545D01*
X89454212Y-125824160D01*
X89454211Y-125824155D01*
X89453905Y-125819775D01*
X89395500Y-125545004D01*
X89348390Y-125415569D01*
X89300933Y-125285181D01*
X89300931Y-125285177D01*
X89299424Y-125281036D01*
X89297356Y-125277146D01*
X89297353Y-125277140D01*
X89169615Y-125036900D01*
X89169611Y-125036894D01*
X89167545Y-125033008D01*
X89080444Y-124913123D01*
X89005019Y-124809310D01*
X89005017Y-124809307D01*
X89002430Y-124805747D01*
X88904828Y-124704677D01*
X88810348Y-124606840D01*
X88810344Y-124606837D01*
X88807294Y-124603678D01*
X88803830Y-124600972D01*
X88803826Y-124600968D01*
X88589401Y-124433441D01*
X88589402Y-124433441D01*
X88585935Y-124430733D01*
X88347252Y-124292929D01*
X88346480Y-124292483D01*
X88346475Y-124292480D01*
X88342660Y-124290278D01*
X88338576Y-124288628D01*
X88338570Y-124288625D01*
X88086287Y-124186697D01*
X88082206Y-124185048D01*
X87809641Y-124117090D01*
X87805273Y-124116631D01*
X87805268Y-124116630D01*
X87534639Y-124088186D01*
X87534636Y-124088186D01*
X87530270Y-124087727D01*
X87525882Y-124087880D01*
X87525876Y-124087880D01*
X87253929Y-124097376D01*
X87253922Y-124097377D01*
X87249532Y-124097530D01*
X87245208Y-124098293D01*
X87245203Y-124098293D01*
X87098224Y-124124210D01*
X86972890Y-124146310D01*
X86705730Y-124233115D01*
X86701777Y-124235043D01*
X86701772Y-124235045D01*
X86591918Y-124288625D01*
X86453250Y-124356258D01*
X86449611Y-124358713D01*
X86449605Y-124358716D01*
X86292788Y-124464491D01*
X86220366Y-124513340D01*
X86011609Y-124701305D01*
X86008780Y-124704677D01*
X85833872Y-124913123D01*
X85833868Y-124913128D01*
X85831044Y-124916494D01*
X85682185Y-125154719D01*
X85567929Y-125411342D01*
X85490500Y-125681370D01*
X85489889Y-125685720D01*
X85489888Y-125685723D01*
X85475460Y-125788383D01*
X85451405Y-125959545D01*
X64543179Y-125959545D01*
X64533717Y-125824230D01*
X64532497Y-125815549D01*
X64475934Y-125549443D01*
X64473515Y-125541006D01*
X64380471Y-125285372D01*
X64376900Y-125277352D01*
X64249191Y-125037165D01*
X64244532Y-125029709D01*
X64139445Y-124885070D01*
X64128520Y-124876646D01*
X64115661Y-124883549D01*
X62912022Y-126087188D01*
X62904408Y-126101132D01*
X62174356Y-126101132D01*
X62175592Y-126098868D01*
X62175461Y-126097035D01*
X62171210Y-126090420D01*
X60963558Y-124882768D01*
X60950173Y-124875459D01*
X60940247Y-124882468D01*
X60914277Y-124913418D01*
X60909118Y-124920518D01*
X60764953Y-125151230D01*
X60760841Y-125158964D01*
X60650186Y-125407499D01*
X60647187Y-125415740D01*
X60572201Y-125677247D01*
X60570377Y-125685827D01*
X60532516Y-125955228D01*
X60531904Y-125963977D01*
X59463489Y-125963977D01*
X59453717Y-125824230D01*
X59452497Y-125815549D01*
X59395934Y-125549443D01*
X59393515Y-125541006D01*
X59300471Y-125285372D01*
X59296900Y-125277352D01*
X59169191Y-125037165D01*
X59164532Y-125029709D01*
X59059445Y-124885070D01*
X59048520Y-124876646D01*
X59035661Y-124883549D01*
X57832022Y-126087188D01*
X57824408Y-126101132D01*
X57094356Y-126101132D01*
X57095592Y-126098868D01*
X57095461Y-126097035D01*
X57091210Y-126090420D01*
X55883558Y-124882768D01*
X55870173Y-124875459D01*
X55860247Y-124882468D01*
X55834277Y-124913418D01*
X55829118Y-124920518D01*
X55684953Y-125151230D01*
X55680841Y-125158964D01*
X55570186Y-125407499D01*
X55567187Y-125415740D01*
X55492201Y-125677247D01*
X55490377Y-125685827D01*
X55452516Y-125955228D01*
X55451904Y-125963977D01*
X52600000Y-125963977D01*
X52600000Y-124508690D01*
X56234711Y-124508690D01*
X56241931Y-124522721D01*
X57447188Y-125727978D01*
X57461132Y-125735592D01*
X57462965Y-125735461D01*
X57469580Y-125731210D01*
X58676133Y-124524657D01*
X58683101Y-124511897D01*
X58680751Y-124508690D01*
X61314711Y-124508690D01*
X61321931Y-124522721D01*
X62527188Y-125727978D01*
X62541132Y-125735592D01*
X62542965Y-125735461D01*
X62549580Y-125731210D01*
X63756133Y-124524657D01*
X63763101Y-124511897D01*
X63755190Y-124501099D01*
X63669120Y-124433855D01*
X63661844Y-124428947D01*
X63426253Y-124292929D01*
X63418361Y-124289080D01*
X63166134Y-124187172D01*
X63157776Y-124184457D01*
X62893825Y-124118647D01*
X62885180Y-124117122D01*
X62614622Y-124088685D01*
X62605859Y-124088379D01*
X62333981Y-124097873D01*
X62325255Y-124098790D01*
X62057334Y-124146033D01*
X62048833Y-124148152D01*
X61790106Y-124232218D01*
X61781959Y-124235509D01*
X61537451Y-124354764D01*
X61529855Y-124359150D01*
X61323018Y-124498662D01*
X61314711Y-124508690D01*
X58680751Y-124508690D01*
X58675190Y-124501099D01*
X58589120Y-124433855D01*
X58581844Y-124428947D01*
X58346253Y-124292929D01*
X58338361Y-124289080D01*
X58086134Y-124187172D01*
X58077776Y-124184457D01*
X57813825Y-124118647D01*
X57805180Y-124117122D01*
X57534622Y-124088685D01*
X57525859Y-124088379D01*
X57253981Y-124097873D01*
X57245255Y-124098790D01*
X56977334Y-124146033D01*
X56968833Y-124148152D01*
X56710106Y-124232218D01*
X56701959Y-124235509D01*
X56457451Y-124354764D01*
X56449855Y-124359150D01*
X56243018Y-124498662D01*
X56234711Y-124508690D01*
X52600000Y-124508690D01*
X52600000Y-122585768D01*
X73667297Y-122585768D01*
X73699021Y-122693557D01*
X73703620Y-122704941D01*
X73789504Y-122869222D01*
X73796218Y-122879483D01*
X73912380Y-123023959D01*
X73920958Y-123032719D01*
X74062970Y-123151881D01*
X74073084Y-123158807D01*
X74235542Y-123248118D01*
X74246806Y-123252946D01*
X74423516Y-123309002D01*
X74435503Y-123311550D01*
X74578661Y-123327607D01*
X74585685Y-123328000D01*
X74717885Y-123328000D01*
X74733124Y-123323525D01*
X74734329Y-123322135D01*
X74736000Y-123314452D01*
X74736000Y-122592115D01*
X74734659Y-122587548D01*
X75244000Y-122587548D01*
X75244000Y-123309885D01*
X75248475Y-123325124D01*
X75249865Y-123326329D01*
X75257548Y-123328000D01*
X75387912Y-123328000D01*
X75394060Y-123327699D01*
X75530626Y-123314309D01*
X75542661Y-123311926D01*
X75720124Y-123258346D01*
X75731466Y-123253671D01*
X75895144Y-123166643D01*
X75905360Y-123159856D01*
X76049019Y-123042690D01*
X76057723Y-123034046D01*
X76175886Y-122891212D01*
X76182746Y-122881041D01*
X76270918Y-122717969D01*
X76275668Y-122706670D01*
X76311380Y-122591307D01*
X76311586Y-122577205D01*
X76304830Y-122574000D01*
X75262115Y-122574000D01*
X75246876Y-122578475D01*
X75245671Y-122579865D01*
X75244000Y-122587548D01*
X74734659Y-122587548D01*
X74731525Y-122576876D01*
X74730135Y-122575671D01*
X74722452Y-122574000D01*
X73681948Y-122574000D01*
X73668417Y-122577973D01*
X73667297Y-122585768D01*
X52600000Y-122585768D01*
X52600000Y-122062795D01*
X73668414Y-122062795D01*
X73675170Y-122066000D01*
X74717885Y-122066000D01*
X74733124Y-122061525D01*
X74734329Y-122060135D01*
X74736000Y-122052452D01*
X74736000Y-121330115D01*
X74734659Y-121325548D01*
X75244000Y-121325548D01*
X75244000Y-122047885D01*
X75248475Y-122063124D01*
X75249865Y-122064329D01*
X75257548Y-122066000D01*
X76298052Y-122066000D01*
X76311583Y-122062027D01*
X76312703Y-122054232D01*
X76280979Y-121946443D01*
X76276380Y-121935059D01*
X76190496Y-121770778D01*
X76183782Y-121760517D01*
X76067620Y-121616041D01*
X76059042Y-121607281D01*
X75917030Y-121488119D01*
X75906916Y-121481193D01*
X75744458Y-121391882D01*
X75733194Y-121387054D01*
X75556484Y-121330998D01*
X75544497Y-121328450D01*
X75401339Y-121312393D01*
X75394315Y-121312000D01*
X75262115Y-121312000D01*
X75246876Y-121316475D01*
X75245671Y-121317865D01*
X75244000Y-121325548D01*
X74734659Y-121325548D01*
X74731525Y-121314876D01*
X74730135Y-121313671D01*
X74722452Y-121312000D01*
X74592088Y-121312000D01*
X74585940Y-121312301D01*
X74449374Y-121325691D01*
X74437339Y-121328074D01*
X74259876Y-121381654D01*
X74248534Y-121386329D01*
X74084856Y-121473357D01*
X74074640Y-121480144D01*
X73930981Y-121597310D01*
X73922277Y-121605954D01*
X73804114Y-121748788D01*
X73797254Y-121758959D01*
X73709082Y-121922031D01*
X73704332Y-121933330D01*
X73668620Y-122048693D01*
X73668414Y-122062795D01*
X52600000Y-122062795D01*
X52600000Y-113945768D01*
X73667297Y-113945768D01*
X73699021Y-114053557D01*
X73703620Y-114064941D01*
X73789504Y-114229222D01*
X73796218Y-114239483D01*
X73912380Y-114383959D01*
X73920958Y-114392719D01*
X74062970Y-114511881D01*
X74073084Y-114518807D01*
X74235542Y-114608118D01*
X74246806Y-114612946D01*
X74423516Y-114669002D01*
X74435503Y-114671550D01*
X74578661Y-114687607D01*
X74585685Y-114688000D01*
X74717885Y-114688000D01*
X74733124Y-114683525D01*
X74734329Y-114682135D01*
X74736000Y-114674452D01*
X74736000Y-113952115D01*
X74734659Y-113947548D01*
X75244000Y-113947548D01*
X75244000Y-114669885D01*
X75248475Y-114685124D01*
X75249865Y-114686329D01*
X75257548Y-114688000D01*
X75387912Y-114688000D01*
X75394060Y-114687699D01*
X75530626Y-114674309D01*
X75542661Y-114671926D01*
X75720124Y-114618346D01*
X75731466Y-114613671D01*
X75895144Y-114526643D01*
X75905360Y-114519856D01*
X76049019Y-114402690D01*
X76057723Y-114394046D01*
X76175886Y-114251212D01*
X76182746Y-114241041D01*
X76270918Y-114077969D01*
X76275668Y-114066670D01*
X76311380Y-113951307D01*
X76311586Y-113937205D01*
X76304830Y-113934000D01*
X75262115Y-113934000D01*
X75246876Y-113938475D01*
X75245671Y-113939865D01*
X75244000Y-113947548D01*
X74734659Y-113947548D01*
X74731525Y-113936876D01*
X74730135Y-113935671D01*
X74722452Y-113934000D01*
X73681948Y-113934000D01*
X73668417Y-113937973D01*
X73667297Y-113945768D01*
X52600000Y-113945768D01*
X52600000Y-113422795D01*
X73668414Y-113422795D01*
X73675170Y-113426000D01*
X74717885Y-113426000D01*
X74733124Y-113421525D01*
X74734329Y-113420135D01*
X74736000Y-113412452D01*
X74736000Y-112690115D01*
X74734659Y-112685548D01*
X75244000Y-112685548D01*
X75244000Y-113407885D01*
X75248475Y-113423124D01*
X75249865Y-113424329D01*
X75257548Y-113426000D01*
X76298052Y-113426000D01*
X76311583Y-113422027D01*
X76312703Y-113414232D01*
X76280979Y-113306443D01*
X76276380Y-113295059D01*
X76190496Y-113130778D01*
X76183782Y-113120517D01*
X76067620Y-112976041D01*
X76059042Y-112967281D01*
X75917030Y-112848119D01*
X75906916Y-112841193D01*
X75744458Y-112751882D01*
X75733194Y-112747054D01*
X75556484Y-112690998D01*
X75544497Y-112688450D01*
X75401339Y-112672393D01*
X75394315Y-112672000D01*
X75262115Y-112672000D01*
X75246876Y-112676475D01*
X75245671Y-112677865D01*
X75244000Y-112685548D01*
X74734659Y-112685548D01*
X74731525Y-112674876D01*
X74730135Y-112673671D01*
X74722452Y-112672000D01*
X74592088Y-112672000D01*
X74585940Y-112672301D01*
X74449374Y-112685691D01*
X74437339Y-112688074D01*
X74259876Y-112741654D01*
X74248534Y-112746329D01*
X74084856Y-112833357D01*
X74074640Y-112840144D01*
X73930981Y-112957310D01*
X73922277Y-112965954D01*
X73804114Y-113108788D01*
X73797254Y-113118959D01*
X73709082Y-113282031D01*
X73704332Y-113293330D01*
X73668620Y-113408693D01*
X73668414Y-113422795D01*
X52600000Y-113422795D01*
X52600000Y-102582458D01*
X70340966Y-102582458D01*
X70380293Y-102754862D01*
X70458227Y-102913594D01*
X70462877Y-102919245D01*
X70462879Y-102919248D01*
X70524731Y-102994413D01*
X70570588Y-103050141D01*
X70711347Y-103157177D01*
X70718035Y-103160148D01*
X70718039Y-103160150D01*
X70785097Y-103189936D01*
X70872954Y-103228960D01*
X71046741Y-103261640D01*
X71054049Y-103261302D01*
X71054052Y-103261302D01*
X71216070Y-103253803D01*
X71216074Y-103253802D01*
X71223385Y-103253464D01*
X71230423Y-103251452D01*
X71230426Y-103251452D01*
X71386371Y-103206883D01*
X71386375Y-103206881D01*
X71393409Y-103204871D01*
X71536806Y-103124565D01*
X71598372Y-103108500D01*
X72295761Y-103108500D01*
X72363882Y-103128502D01*
X72384856Y-103145405D01*
X72737029Y-103497578D01*
X72747896Y-103509969D01*
X72766190Y-103533810D01*
X72893250Y-103631307D01*
X72900880Y-103634467D01*
X72900881Y-103634468D01*
X72931486Y-103647144D01*
X72954539Y-103656693D01*
X73041214Y-103692596D01*
X73049402Y-103693674D01*
X73120607Y-103703048D01*
X73200000Y-103713500D01*
X73208188Y-103712422D01*
X73208189Y-103712422D01*
X73229792Y-103709578D01*
X73246238Y-103708500D01*
X73904869Y-103708500D01*
X73972990Y-103728502D01*
X73981136Y-103734204D01*
X74011347Y-103757177D01*
X74018035Y-103760148D01*
X74018039Y-103760150D01*
X74078358Y-103786942D01*
X74172954Y-103828960D01*
X74346741Y-103861640D01*
X74354049Y-103861302D01*
X74354052Y-103861302D01*
X74516070Y-103853803D01*
X74516074Y-103853802D01*
X74523385Y-103853464D01*
X74530423Y-103851452D01*
X74530426Y-103851452D01*
X74686371Y-103806883D01*
X74686375Y-103806881D01*
X74693409Y-103804871D01*
X74735634Y-103781224D01*
X74802682Y-103743676D01*
X74871891Y-103727843D01*
X74940515Y-103753315D01*
X75011347Y-103807177D01*
X75018035Y-103810148D01*
X75018039Y-103810150D01*
X75085097Y-103839936D01*
X75172954Y-103878960D01*
X75346741Y-103911640D01*
X75354049Y-103911302D01*
X75354052Y-103911302D01*
X75516070Y-103903803D01*
X75516074Y-103903802D01*
X75523385Y-103903464D01*
X75530423Y-103901452D01*
X75530426Y-103901452D01*
X75663738Y-103863351D01*
X75698363Y-103858500D01*
X77219296Y-103858500D01*
X77287417Y-103878502D01*
X77312928Y-103900186D01*
X77338749Y-103928863D01*
X77344091Y-103932744D01*
X77344093Y-103932746D01*
X77487908Y-104037233D01*
X77493250Y-104041114D01*
X77499278Y-104043798D01*
X77499280Y-104043799D01*
X77661682Y-104116105D01*
X77667713Y-104118790D01*
X77761113Y-104138643D01*
X77848056Y-104157124D01*
X77848061Y-104157124D01*
X77854513Y-104158496D01*
X78045487Y-104158496D01*
X78051939Y-104157124D01*
X78051944Y-104157124D01*
X78138887Y-104138643D01*
X78232287Y-104118790D01*
X78238318Y-104116105D01*
X78400720Y-104043799D01*
X78400722Y-104043798D01*
X78406750Y-104041114D01*
X78412092Y-104037233D01*
X78555907Y-103932746D01*
X78555909Y-103932744D01*
X78561251Y-103928863D01*
X78628835Y-103853803D01*
X78684618Y-103791850D01*
X78684619Y-103791849D01*
X78689037Y-103786942D01*
X78747311Y-103686008D01*
X78781220Y-103627277D01*
X78781221Y-103627276D01*
X78784524Y-103621554D01*
X78843538Y-103439927D01*
X78863500Y-103250000D01*
X78843538Y-103060073D01*
X78838474Y-103044486D01*
X78786566Y-102884731D01*
X78784524Y-102878446D01*
X78689037Y-102713058D01*
X78571445Y-102582458D01*
X78565673Y-102576048D01*
X78565672Y-102576047D01*
X78561251Y-102571137D01*
X78555909Y-102567256D01*
X78555907Y-102567254D01*
X78412092Y-102462767D01*
X78412091Y-102462766D01*
X78406750Y-102458886D01*
X78400722Y-102456202D01*
X78400720Y-102456201D01*
X78238318Y-102383895D01*
X78238317Y-102383895D01*
X78232287Y-102381210D01*
X78138887Y-102361357D01*
X78051944Y-102342876D01*
X78051939Y-102342876D01*
X78045487Y-102341504D01*
X77854513Y-102341504D01*
X77848061Y-102342876D01*
X77848056Y-102342876D01*
X77761113Y-102361357D01*
X77667713Y-102381210D01*
X77661683Y-102383895D01*
X77661682Y-102383895D01*
X77499280Y-102456201D01*
X77499278Y-102456202D01*
X77493250Y-102458886D01*
X77487909Y-102462766D01*
X77487908Y-102462767D01*
X77344093Y-102567254D01*
X77344091Y-102567256D01*
X77338749Y-102571137D01*
X77312930Y-102599812D01*
X77252487Y-102637050D01*
X77219296Y-102641500D01*
X76986331Y-102641500D01*
X76918210Y-102621498D01*
X76871717Y-102567842D01*
X76861179Y-102530091D01*
X76843870Y-102381629D01*
X76843870Y-102381628D01*
X76843022Y-102374357D01*
X76782687Y-102208136D01*
X76685731Y-102060253D01*
X76557355Y-101938642D01*
X76404445Y-101849825D01*
X76235204Y-101798567D01*
X76058711Y-101787617D01*
X76051496Y-101788857D01*
X76051493Y-101788857D01*
X75891648Y-101816324D01*
X75884432Y-101817564D01*
X75721717Y-101886800D01*
X75656268Y-101934965D01*
X75653527Y-101936982D01*
X75586806Y-101961248D01*
X75578845Y-101961500D01*
X74410953Y-101961500D01*
X74384829Y-101958060D01*
X74383247Y-101957405D01*
X74375061Y-101956327D01*
X74375060Y-101956327D01*
X74266526Y-101942038D01*
X74266527Y-101942038D01*
X74262440Y-101941500D01*
X73754239Y-101941500D01*
X73686118Y-101921498D01*
X73665144Y-101904595D01*
X73054550Y-101294001D01*
X73043683Y-101281610D01*
X73030415Y-101264319D01*
X73025389Y-101257769D01*
X72898329Y-101160272D01*
X72832946Y-101133190D01*
X72750365Y-101098983D01*
X72631545Y-101083340D01*
X72584712Y-101067375D01*
X72453918Y-100991404D01*
X72284677Y-100940146D01*
X72108184Y-100929196D01*
X72100969Y-100930436D01*
X72100966Y-100930436D01*
X71941121Y-100957903D01*
X71933905Y-100959143D01*
X71771190Y-101028379D01*
X71628767Y-101133190D01*
X71514276Y-101267955D01*
X71433858Y-101425444D01*
X71391828Y-101597209D01*
X71391771Y-101604528D01*
X71391770Y-101604532D01*
X71391587Y-101627864D01*
X71371050Y-101695825D01*
X71317031Y-101741895D01*
X71243277Y-101750881D01*
X71242211Y-101750689D01*
X71235204Y-101748567D01*
X71058711Y-101737617D01*
X71051496Y-101738857D01*
X71051493Y-101738857D01*
X70891648Y-101766324D01*
X70884432Y-101767564D01*
X70721717Y-101836800D01*
X70579294Y-101941611D01*
X70464803Y-102076376D01*
X70384385Y-102233865D01*
X70342355Y-102405630D01*
X70342298Y-102412949D01*
X70342297Y-102412953D01*
X70341906Y-102462767D01*
X70340966Y-102582458D01*
X52600000Y-102582458D01*
X52600000Y-96213111D01*
X68550466Y-96213111D01*
X68589793Y-96385515D01*
X68667727Y-96544247D01*
X68672377Y-96549898D01*
X68672379Y-96549901D01*
X68702658Y-96586697D01*
X68780088Y-96680794D01*
X68920847Y-96787830D01*
X68927535Y-96790801D01*
X68927539Y-96790803D01*
X68978850Y-96813594D01*
X69082454Y-96859613D01*
X69196581Y-96881074D01*
X69262391Y-96915809D01*
X70730015Y-98383433D01*
X70740882Y-98395823D01*
X70759179Y-98419668D01*
X70789569Y-98442987D01*
X70789570Y-98442988D01*
X70882097Y-98513986D01*
X71025238Y-98573277D01*
X71178847Y-98593500D01*
X71187035Y-98592422D01*
X71208638Y-98589578D01*
X71225084Y-98588500D01*
X74303763Y-98588500D01*
X74320210Y-98589578D01*
X74350000Y-98593500D01*
X74358188Y-98592422D01*
X74379791Y-98589578D01*
X74391933Y-98588782D01*
X74391932Y-98588770D01*
X74396052Y-98588500D01*
X74400173Y-98588500D01*
X74515803Y-98573277D01*
X74658944Y-98513986D01*
X74781862Y-98419668D01*
X74840373Y-98343415D01*
X74851240Y-98331025D01*
X75376405Y-97805860D01*
X75438717Y-97771834D01*
X75509532Y-97776899D01*
X75566368Y-97819446D01*
X75591179Y-97885966D01*
X75591500Y-97894955D01*
X75591500Y-97953762D01*
X75590422Y-97970208D01*
X75586500Y-98000000D01*
X75607404Y-98158786D01*
X75643307Y-98245461D01*
X75668693Y-98306750D01*
X75766190Y-98433810D01*
X75772740Y-98438836D01*
X75790031Y-98452104D01*
X75802422Y-98462971D01*
X75870922Y-98531471D01*
X75904671Y-98592544D01*
X75928663Y-98697720D01*
X75928665Y-98697727D01*
X75930293Y-98704862D01*
X76008227Y-98863594D01*
X76012877Y-98869245D01*
X76012879Y-98869248D01*
X76073427Y-98942829D01*
X76120588Y-99000141D01*
X76261347Y-99107177D01*
X76268035Y-99110148D01*
X76268039Y-99110150D01*
X76335097Y-99139936D01*
X76422954Y-99178960D01*
X76596741Y-99211640D01*
X76604049Y-99211302D01*
X76604052Y-99211302D01*
X76766070Y-99203803D01*
X76766074Y-99203802D01*
X76773385Y-99203464D01*
X76780423Y-99201452D01*
X76780426Y-99201452D01*
X76936371Y-99156883D01*
X76936375Y-99156881D01*
X76943409Y-99154871D01*
X77097695Y-99068467D01*
X77103090Y-99063515D01*
X77222574Y-98953837D01*
X77222576Y-98953835D01*
X77227966Y-98948887D01*
X77232073Y-98942833D01*
X77232076Y-98942829D01*
X77323123Y-98808604D01*
X77327233Y-98802545D01*
X77390172Y-98637292D01*
X77396602Y-98588782D01*
X77412894Y-98465855D01*
X77413406Y-98461993D01*
X77413500Y-98450000D01*
X77393022Y-98274357D01*
X77382534Y-98245461D01*
X77335184Y-98115015D01*
X77332687Y-98108136D01*
X77235731Y-97960253D01*
X77107355Y-97838642D01*
X77030900Y-97794234D01*
X76960776Y-97753502D01*
X76960774Y-97753501D01*
X76954445Y-97749825D01*
X76897978Y-97732723D01*
X76838579Y-97693834D01*
X76809635Y-97629005D01*
X76808500Y-97612132D01*
X76808500Y-96946238D01*
X76809578Y-96929792D01*
X76812422Y-96908189D01*
X76812422Y-96908188D01*
X76813500Y-96900000D01*
X76798733Y-96787830D01*
X76793674Y-96749402D01*
X76792596Y-96741214D01*
X76756159Y-96653250D01*
X76731307Y-96593250D01*
X76633810Y-96466190D01*
X76609969Y-96447896D01*
X76597578Y-96437029D01*
X76162971Y-96002422D01*
X76152104Y-95990031D01*
X76138836Y-95972740D01*
X76133810Y-95966190D01*
X76006750Y-95868693D01*
X75996671Y-95864518D01*
X75941367Y-95841611D01*
X75941365Y-95841610D01*
X75866417Y-95810565D01*
X75858786Y-95807404D01*
X75700000Y-95786500D01*
X75691812Y-95787578D01*
X75691811Y-95787578D01*
X75670208Y-95790422D01*
X75653762Y-95791500D01*
X72496214Y-95791500D01*
X72432929Y-95774454D01*
X72368102Y-95736800D01*
X72304445Y-95699825D01*
X72135204Y-95648567D01*
X71958711Y-95637617D01*
X71951496Y-95638857D01*
X71951493Y-95638857D01*
X71791648Y-95666324D01*
X71784432Y-95667564D01*
X71621717Y-95736800D01*
X71479294Y-95841611D01*
X71364803Y-95976376D01*
X71354486Y-95996581D01*
X71309952Y-96083796D01*
X71284385Y-96133865D01*
X71242355Y-96305630D01*
X71242298Y-96312949D01*
X71242297Y-96312953D01*
X71241727Y-96385515D01*
X71240966Y-96482458D01*
X71280293Y-96654862D01*
X71283517Y-96661429D01*
X71283518Y-96661431D01*
X71293025Y-96680794D01*
X71358227Y-96813594D01*
X71362877Y-96819245D01*
X71362879Y-96819248D01*
X71419677Y-96888271D01*
X71470588Y-96950141D01*
X71611347Y-97057177D01*
X71618035Y-97060148D01*
X71618039Y-97060150D01*
X71667587Y-97082158D01*
X71772954Y-97128960D01*
X71780149Y-97130313D01*
X71946741Y-97161640D01*
X71946145Y-97164807D01*
X71954973Y-97168084D01*
X71960387Y-97164604D01*
X71990059Y-97159635D01*
X72116070Y-97153803D01*
X72116074Y-97153802D01*
X72123385Y-97153464D01*
X72130423Y-97151452D01*
X72130426Y-97151452D01*
X72286371Y-97106883D01*
X72286375Y-97106881D01*
X72293409Y-97104871D01*
X72436806Y-97024565D01*
X72498372Y-97008500D01*
X74205044Y-97008500D01*
X74273165Y-97028502D01*
X74319658Y-97082158D01*
X74329762Y-97152432D01*
X74300268Y-97217012D01*
X74294139Y-97223595D01*
X74143139Y-97374595D01*
X74080827Y-97408621D01*
X74054044Y-97411500D01*
X71995885Y-97411500D01*
X71963096Y-97401872D01*
X71950862Y-97408578D01*
X71923884Y-97411500D01*
X71474802Y-97411500D01*
X71406681Y-97391498D01*
X71385707Y-97374595D01*
X70094908Y-96083796D01*
X70060882Y-96021484D01*
X70058851Y-96009293D01*
X70053370Y-95962283D01*
X70052522Y-95955010D01*
X69992187Y-95788789D01*
X69895231Y-95640906D01*
X69766855Y-95519295D01*
X69613945Y-95430478D01*
X69444704Y-95379220D01*
X69268211Y-95368270D01*
X69260996Y-95369510D01*
X69260993Y-95369510D01*
X69101148Y-95396977D01*
X69093932Y-95398217D01*
X68931217Y-95467453D01*
X68788794Y-95572264D01*
X68674303Y-95707029D01*
X68670975Y-95713547D01*
X68607799Y-95837270D01*
X68593885Y-95864518D01*
X68592146Y-95871623D01*
X68592145Y-95871627D01*
X68573426Y-95948128D01*
X68551855Y-96036283D01*
X68550466Y-96213111D01*
X52600000Y-96213111D01*
X52600000Y-91992194D01*
X69769390Y-91992194D01*
X69771165Y-92003795D01*
X69773831Y-92014648D01*
X69840050Y-92208060D01*
X69844601Y-92218280D01*
X69944020Y-92396900D01*
X69950306Y-92406150D01*
X70079792Y-92564351D01*
X70087613Y-92572338D01*
X70243062Y-92705103D01*
X70252179Y-92711582D01*
X70428683Y-92814723D01*
X70438801Y-92819484D01*
X70630786Y-92889741D01*
X70641574Y-92892632D01*
X70678155Y-92899016D01*
X70691520Y-92897502D01*
X70696000Y-92883049D01*
X70696000Y-91992115D01*
X70694659Y-91987548D01*
X71204000Y-91987548D01*
X71204000Y-92883583D01*
X71207724Y-92896266D01*
X71223094Y-92898159D01*
X71270686Y-92889338D01*
X71281446Y-92886334D01*
X71472689Y-92814069D01*
X71482749Y-92809206D01*
X71658173Y-92704217D01*
X71667208Y-92697653D01*
X71821263Y-92563262D01*
X71829008Y-92555185D01*
X71956824Y-92395644D01*
X71963010Y-92386334D01*
X72060561Y-92206666D01*
X72064995Y-92196420D01*
X72129191Y-92002312D01*
X72131653Y-91991815D01*
X72129639Y-91977949D01*
X72116154Y-91974000D01*
X71222115Y-91974000D01*
X71206876Y-91978475D01*
X71205671Y-91979865D01*
X71204000Y-91987548D01*
X70694659Y-91987548D01*
X70691525Y-91976876D01*
X70690135Y-91975671D01*
X70682452Y-91974000D01*
X69784721Y-91974000D01*
X69771377Y-91977918D01*
X69769390Y-91992194D01*
X52600000Y-91992194D01*
X52600000Y-78759545D01*
X55451405Y-78759545D01*
X55451405Y-79040455D01*
X55452017Y-79044807D01*
X55482022Y-79258303D01*
X55490500Y-79318630D01*
X55567929Y-79588658D01*
X55682185Y-79845281D01*
X55831044Y-80083506D01*
X55833868Y-80086872D01*
X55833872Y-80086877D01*
X55920982Y-80190690D01*
X56011609Y-80298695D01*
X56220366Y-80486660D01*
X56224012Y-80489119D01*
X56449605Y-80641284D01*
X56449611Y-80641287D01*
X56453250Y-80643742D01*
X56584008Y-80707517D01*
X56701772Y-80764955D01*
X56701777Y-80764957D01*
X56705730Y-80766885D01*
X56972890Y-80853690D01*
X57098224Y-80875790D01*
X57245203Y-80901707D01*
X57245208Y-80901707D01*
X57249532Y-80902470D01*
X57253922Y-80902623D01*
X57253929Y-80902624D01*
X57525876Y-80912120D01*
X57525882Y-80912120D01*
X57530270Y-80912273D01*
X57534636Y-80911814D01*
X57534639Y-80911814D01*
X57805268Y-80883370D01*
X57805273Y-80883369D01*
X57809641Y-80882910D01*
X58082206Y-80814952D01*
X58197808Y-80768246D01*
X58338570Y-80711375D01*
X58338576Y-80711372D01*
X58342660Y-80709722D01*
X58346475Y-80707520D01*
X58346480Y-80707517D01*
X58461198Y-80641284D01*
X58585935Y-80569267D01*
X58695438Y-80483714D01*
X58803826Y-80399032D01*
X58803830Y-80399028D01*
X58807294Y-80396322D01*
X58901572Y-80298695D01*
X58999372Y-80197420D01*
X58999374Y-80197417D01*
X59002430Y-80194253D01*
X59005019Y-80190690D01*
X59164956Y-79970556D01*
X59164958Y-79970552D01*
X59167545Y-79966992D01*
X59169611Y-79963106D01*
X59169615Y-79963100D01*
X59297353Y-79722860D01*
X59297356Y-79722854D01*
X59299424Y-79718964D01*
X59345391Y-79592672D01*
X59393996Y-79459129D01*
X59393997Y-79459125D01*
X59395500Y-79454996D01*
X59453905Y-79180225D01*
X59473500Y-78900000D01*
X59463679Y-78759545D01*
X60531405Y-78759545D01*
X60531405Y-79040455D01*
X60532017Y-79044807D01*
X60562022Y-79258303D01*
X60570500Y-79318630D01*
X60647929Y-79588658D01*
X60762185Y-79845281D01*
X60911044Y-80083506D01*
X60913868Y-80086872D01*
X60913872Y-80086877D01*
X61000982Y-80190690D01*
X61091609Y-80298695D01*
X61300366Y-80486660D01*
X61304012Y-80489119D01*
X61529605Y-80641284D01*
X61529611Y-80641287D01*
X61533250Y-80643742D01*
X61664008Y-80707517D01*
X61781772Y-80764955D01*
X61781777Y-80764957D01*
X61785730Y-80766885D01*
X62052890Y-80853690D01*
X62178224Y-80875790D01*
X62325203Y-80901707D01*
X62325208Y-80901707D01*
X62329532Y-80902470D01*
X62333922Y-80902623D01*
X62333929Y-80902624D01*
X62605876Y-80912120D01*
X62605882Y-80912120D01*
X62610270Y-80912273D01*
X62614636Y-80911814D01*
X62614639Y-80911814D01*
X62885268Y-80883370D01*
X62885273Y-80883369D01*
X62889641Y-80882910D01*
X63162206Y-80814952D01*
X63277808Y-80768246D01*
X63418570Y-80711375D01*
X63418576Y-80711372D01*
X63422660Y-80709722D01*
X63426475Y-80707520D01*
X63426480Y-80707517D01*
X63541198Y-80641284D01*
X63665935Y-80569267D01*
X63775438Y-80483714D01*
X63883826Y-80399032D01*
X63883830Y-80399028D01*
X63887294Y-80396322D01*
X63981572Y-80298695D01*
X64079372Y-80197420D01*
X64079374Y-80197417D01*
X64082430Y-80194253D01*
X64085019Y-80190690D01*
X64244956Y-79970556D01*
X64244958Y-79970552D01*
X64247545Y-79966992D01*
X64249611Y-79963106D01*
X64249615Y-79963100D01*
X64377353Y-79722860D01*
X64377356Y-79722854D01*
X64379424Y-79718964D01*
X64425391Y-79592672D01*
X64473996Y-79459129D01*
X64473997Y-79459125D01*
X64475500Y-79454996D01*
X64533905Y-79180225D01*
X64553500Y-78900000D01*
X64533905Y-78619775D01*
X64475500Y-78345004D01*
X64428390Y-78215569D01*
X64380933Y-78085181D01*
X64380931Y-78085177D01*
X64379424Y-78081036D01*
X64377356Y-78077146D01*
X64377353Y-78077140D01*
X64249615Y-77836900D01*
X64249611Y-77836894D01*
X64247545Y-77833008D01*
X64160444Y-77713123D01*
X64085019Y-77609310D01*
X64085017Y-77609307D01*
X64082430Y-77605747D01*
X64045826Y-77567842D01*
X63890348Y-77406840D01*
X63890344Y-77406837D01*
X63887294Y-77403678D01*
X63883830Y-77400972D01*
X63883826Y-77400968D01*
X63669401Y-77233441D01*
X63669402Y-77233441D01*
X63665935Y-77230733D01*
X63533603Y-77154331D01*
X63426480Y-77092483D01*
X63426475Y-77092480D01*
X63422660Y-77090278D01*
X63418576Y-77088628D01*
X63418570Y-77088625D01*
X63166287Y-76986697D01*
X63162206Y-76985048D01*
X63051180Y-76957366D01*
X62985960Y-76941105D01*
X62889641Y-76917090D01*
X62885273Y-76916631D01*
X62885268Y-76916630D01*
X62614639Y-76888186D01*
X62614636Y-76888186D01*
X62610270Y-76887727D01*
X62605882Y-76887880D01*
X62605876Y-76887880D01*
X62333929Y-76897376D01*
X62333922Y-76897377D01*
X62329532Y-76897530D01*
X62325208Y-76898293D01*
X62325203Y-76898293D01*
X62212563Y-76918155D01*
X62052890Y-76946310D01*
X61785730Y-77033115D01*
X61781777Y-77035043D01*
X61781772Y-77035045D01*
X61671918Y-77088625D01*
X61533250Y-77156258D01*
X61529611Y-77158713D01*
X61529605Y-77158716D01*
X61422836Y-77230733D01*
X61300366Y-77313340D01*
X61091609Y-77501305D01*
X61088780Y-77504677D01*
X60913872Y-77713123D01*
X60913868Y-77713128D01*
X60911044Y-77716494D01*
X60762185Y-77954719D01*
X60647929Y-78211342D01*
X60570500Y-78481370D01*
X60531405Y-78759545D01*
X59463679Y-78759545D01*
X59453905Y-78619775D01*
X59395500Y-78345004D01*
X59348390Y-78215569D01*
X59300933Y-78085181D01*
X59300931Y-78085177D01*
X59299424Y-78081036D01*
X59297356Y-78077146D01*
X59297353Y-78077140D01*
X59169615Y-77836900D01*
X59169611Y-77836894D01*
X59167545Y-77833008D01*
X59080444Y-77713123D01*
X59005019Y-77609310D01*
X59005017Y-77609307D01*
X59002430Y-77605747D01*
X58965826Y-77567842D01*
X58810348Y-77406840D01*
X58810344Y-77406837D01*
X58807294Y-77403678D01*
X58803830Y-77400972D01*
X58803826Y-77400968D01*
X58589401Y-77233441D01*
X58589402Y-77233441D01*
X58585935Y-77230733D01*
X58453603Y-77154331D01*
X58346480Y-77092483D01*
X58346475Y-77092480D01*
X58342660Y-77090278D01*
X58338576Y-77088628D01*
X58338570Y-77088625D01*
X58086287Y-76986697D01*
X58082206Y-76985048D01*
X57971180Y-76957366D01*
X57905960Y-76941105D01*
X57809641Y-76917090D01*
X57805273Y-76916631D01*
X57805268Y-76916630D01*
X57534639Y-76888186D01*
X57534636Y-76888186D01*
X57530270Y-76887727D01*
X57525882Y-76887880D01*
X57525876Y-76887880D01*
X57253929Y-76897376D01*
X57253922Y-76897377D01*
X57249532Y-76897530D01*
X57245208Y-76898293D01*
X57245203Y-76898293D01*
X57132563Y-76918155D01*
X56972890Y-76946310D01*
X56705730Y-77033115D01*
X56701777Y-77035043D01*
X56701772Y-77035045D01*
X56591918Y-77088625D01*
X56453250Y-77156258D01*
X56449611Y-77158713D01*
X56449605Y-77158716D01*
X56342836Y-77230733D01*
X56220366Y-77313340D01*
X56011609Y-77501305D01*
X56008780Y-77504677D01*
X55833872Y-77713123D01*
X55833868Y-77713128D01*
X55831044Y-77716494D01*
X55682185Y-77954719D01*
X55567929Y-78211342D01*
X55490500Y-78481370D01*
X55451405Y-78759545D01*
X52600000Y-78759545D01*
X52600000Y-75000000D01*
X67486500Y-75000000D01*
X67506320Y-75315025D01*
X67565466Y-75625082D01*
X67663007Y-75925281D01*
X67664694Y-75928867D01*
X67664696Y-75928871D01*
X67795715Y-76207302D01*
X67795719Y-76207309D01*
X67797403Y-76210888D01*
X67799526Y-76214234D01*
X67799527Y-76214235D01*
X67808027Y-76227629D01*
X67966536Y-76477398D01*
X68167737Y-76720609D01*
X68170624Y-76723320D01*
X68378103Y-76918155D01*
X68397835Y-76936685D01*
X68401037Y-76939012D01*
X68401039Y-76939013D01*
X68496638Y-77008469D01*
X68653199Y-77122218D01*
X68656668Y-77124125D01*
X68656671Y-77124127D01*
X68855513Y-77233441D01*
X68929804Y-77274283D01*
X69161884Y-77366170D01*
X69217858Y-77409845D01*
X69241500Y-77483322D01*
X69241500Y-85484013D01*
X69240067Y-85502963D01*
X69236965Y-85523354D01*
X69237558Y-85530646D01*
X69237558Y-85530649D01*
X69241085Y-85574010D01*
X69241500Y-85584224D01*
X69241500Y-85592886D01*
X69241924Y-85596520D01*
X69241924Y-85596524D01*
X69244951Y-85622483D01*
X69245384Y-85626862D01*
X69251300Y-85699605D01*
X69253556Y-85706568D01*
X69254732Y-85712456D01*
X69256130Y-85718373D01*
X69256978Y-85725643D01*
X69281887Y-85794267D01*
X69283304Y-85798395D01*
X69303542Y-85860868D01*
X69303544Y-85860873D01*
X69305798Y-85867830D01*
X69309593Y-85874084D01*
X69312101Y-85879562D01*
X69314815Y-85884981D01*
X69317313Y-85891864D01*
X69321326Y-85897984D01*
X69321326Y-85897985D01*
X69357335Y-85952907D01*
X69359682Y-85956627D01*
X69394622Y-86014208D01*
X69394625Y-86014212D01*
X69397534Y-86019006D01*
X69401249Y-86023212D01*
X69405751Y-86028310D01*
X69407972Y-86030894D01*
X69410255Y-86033624D01*
X69414269Y-86039747D01*
X69419584Y-86044782D01*
X69466132Y-86088877D01*
X69468574Y-86091255D01*
X71136954Y-87759635D01*
X71170980Y-87821947D01*
X71165915Y-87892762D01*
X71123368Y-87949598D01*
X71056848Y-87974409D01*
X71040606Y-87974521D01*
X71029491Y-87973880D01*
X70917490Y-87967422D01*
X70917487Y-87967422D01*
X70911883Y-87967099D01*
X70697699Y-87993018D01*
X70491490Y-88056456D01*
X70486510Y-88059026D01*
X70486506Y-88059028D01*
X70304757Y-88152836D01*
X70299774Y-88155408D01*
X70128611Y-88286746D01*
X69983411Y-88446319D01*
X69868764Y-88629083D01*
X69788293Y-88829260D01*
X69744542Y-89040524D01*
X69738895Y-89256196D01*
X69771529Y-89469460D01*
X69841413Y-89673575D01*
X69946338Y-89862088D01*
X69949891Y-89866428D01*
X69949893Y-89866432D01*
X70008454Y-89937979D01*
X70082987Y-90029041D01*
X70247042Y-90169158D01*
X70251887Y-90171989D01*
X70428470Y-90275176D01*
X70428473Y-90275177D01*
X70433317Y-90278008D01*
X70438587Y-90279937D01*
X70438588Y-90279937D01*
X70581825Y-90332354D01*
X70638923Y-90374548D01*
X70664145Y-90440914D01*
X70649483Y-90510380D01*
X70599593Y-90560892D01*
X70575573Y-90571110D01*
X70497040Y-90595270D01*
X70486695Y-90599491D01*
X70305025Y-90693258D01*
X70295594Y-90699243D01*
X70133394Y-90823704D01*
X70125180Y-90831257D01*
X69987582Y-90982475D01*
X69980829Y-90991371D01*
X69872188Y-91164562D01*
X69867117Y-91174514D01*
X69790864Y-91364198D01*
X69787633Y-91374898D01*
X69772441Y-91448260D01*
X69773587Y-91462316D01*
X69783775Y-91466000D01*
X72133106Y-91466000D01*
X72133106Y-91469283D01*
X72174808Y-91469283D01*
X72228403Y-91501084D01*
X72634337Y-91907018D01*
X72642536Y-91916052D01*
X72665933Y-91944485D01*
X72665937Y-91944489D01*
X72670588Y-91950141D01*
X72734256Y-91998555D01*
X72736096Y-91999982D01*
X72798802Y-92049594D01*
X72805335Y-92052647D01*
X72805604Y-92052810D01*
X72811347Y-92057177D01*
X72818034Y-92060147D01*
X72818037Y-92060149D01*
X72884394Y-92089623D01*
X72886582Y-92090620D01*
X72959001Y-92124467D01*
X72966061Y-92125935D01*
X72966366Y-92126033D01*
X72972954Y-92128960D01*
X72980147Y-92130313D01*
X72980148Y-92130313D01*
X73051523Y-92143735D01*
X73053895Y-92144205D01*
X73124963Y-92158987D01*
X73124967Y-92158987D01*
X73132129Y-92160477D01*
X73139333Y-92160282D01*
X73139656Y-92160308D01*
X73146741Y-92161640D01*
X73154050Y-92161302D01*
X73154054Y-92161302D01*
X73226564Y-92157946D01*
X73228980Y-92157857D01*
X73301582Y-92155892D01*
X73308896Y-92155694D01*
X73315863Y-92153847D01*
X73316183Y-92153797D01*
X73323385Y-92153464D01*
X73400282Y-92131487D01*
X73402538Y-92130865D01*
X73479823Y-92110373D01*
X73486177Y-92106973D01*
X73486472Y-92106853D01*
X73493409Y-92104871D01*
X73499792Y-92101296D01*
X73499800Y-92101293D01*
X73563211Y-92065781D01*
X73565333Y-92064619D01*
X73629280Y-92030403D01*
X73635739Y-92026947D01*
X73641140Y-92022176D01*
X73641402Y-92021991D01*
X73647695Y-92018467D01*
X73706626Y-91964372D01*
X73708398Y-91962777D01*
X73726163Y-91947089D01*
X73790464Y-91916990D01*
X73860830Y-91926434D01*
X73906163Y-91965293D01*
X73908227Y-91963594D01*
X74020588Y-92100141D01*
X74026415Y-92104572D01*
X74026416Y-92104573D01*
X74048505Y-92121370D01*
X74161347Y-92207177D01*
X74168035Y-92210148D01*
X74168039Y-92210150D01*
X74186343Y-92218280D01*
X74322954Y-92278960D01*
X74496741Y-92311640D01*
X74504049Y-92311302D01*
X74504052Y-92311302D01*
X74666070Y-92303803D01*
X74666074Y-92303802D01*
X74673385Y-92303464D01*
X74680423Y-92301452D01*
X74680426Y-92301452D01*
X74836371Y-92256883D01*
X74836375Y-92256881D01*
X74843409Y-92254871D01*
X74997695Y-92168467D01*
X75003090Y-92163514D01*
X75004583Y-92162434D01*
X75078466Y-92138500D01*
X75903763Y-92138500D01*
X75920210Y-92139578D01*
X75950000Y-92143500D01*
X75958188Y-92142422D01*
X75979791Y-92139578D01*
X76026805Y-92133388D01*
X76095421Y-92124355D01*
X76103609Y-92123277D01*
X76246750Y-92063986D01*
X76339277Y-91992988D01*
X76339278Y-91992987D01*
X76356379Y-91979865D01*
X76363122Y-91974691D01*
X76369668Y-91969668D01*
X76387965Y-91945823D01*
X76398832Y-91933433D01*
X76492406Y-91839859D01*
X76561139Y-91804610D01*
X76566070Y-91803803D01*
X76573385Y-91803464D01*
X76580423Y-91801452D01*
X76580426Y-91801452D01*
X76736371Y-91756883D01*
X76736375Y-91756881D01*
X76743409Y-91754871D01*
X76897695Y-91668467D01*
X76903090Y-91663515D01*
X77022574Y-91553837D01*
X77022576Y-91553835D01*
X77027966Y-91548887D01*
X77032073Y-91542833D01*
X77032076Y-91542829D01*
X77123123Y-91408604D01*
X77127233Y-91402545D01*
X77190172Y-91237292D01*
X77213406Y-91061993D01*
X77213500Y-91050000D01*
X77198887Y-90924660D01*
X77193870Y-90881629D01*
X77193870Y-90881628D01*
X77193022Y-90874357D01*
X77189789Y-90865448D01*
X77135184Y-90715015D01*
X77132687Y-90708136D01*
X77058689Y-90595270D01*
X77039743Y-90566372D01*
X77039742Y-90566371D01*
X77035731Y-90560253D01*
X76907355Y-90438642D01*
X76754445Y-90349825D01*
X76585204Y-90298567D01*
X76408711Y-90287617D01*
X76401496Y-90288857D01*
X76401493Y-90288857D01*
X76241648Y-90316324D01*
X76234432Y-90317564D01*
X76071717Y-90386800D01*
X75929294Y-90491611D01*
X75814803Y-90626376D01*
X75734385Y-90783865D01*
X75732646Y-90790970D01*
X75732645Y-90790974D01*
X75714422Y-90865448D01*
X75678802Y-90926863D01*
X75615634Y-90959270D01*
X75592033Y-90961500D01*
X75078409Y-90961500D01*
X75010407Y-90941533D01*
X75007355Y-90938642D01*
X74854445Y-90849825D01*
X74685204Y-90798567D01*
X74508711Y-90787617D01*
X74501496Y-90788857D01*
X74501493Y-90788857D01*
X74341648Y-90816324D01*
X74334432Y-90817564D01*
X74171717Y-90886800D01*
X74029294Y-90991611D01*
X74024553Y-90997192D01*
X74021669Y-90999881D01*
X73958208Y-91031713D01*
X73887612Y-91024181D01*
X73832295Y-90979678D01*
X73828017Y-90973100D01*
X73805374Y-90935787D01*
X73802465Y-90930993D01*
X73794249Y-90921690D01*
X73792031Y-90919108D01*
X73789741Y-90916369D01*
X73785731Y-90910253D01*
X73733868Y-90861123D01*
X73731426Y-90858745D01*
X73445405Y-90572724D01*
X73411379Y-90510412D01*
X73408500Y-90483629D01*
X73408500Y-88265987D01*
X73409933Y-88247037D01*
X73411935Y-88233880D01*
X73411935Y-88233876D01*
X73413035Y-88226646D01*
X73408915Y-88175989D01*
X73408500Y-88165776D01*
X73408500Y-88157114D01*
X73405049Y-88127517D01*
X73404616Y-88123138D01*
X73399402Y-88059028D01*
X73398700Y-88050395D01*
X73396444Y-88043432D01*
X73395268Y-88037544D01*
X73393870Y-88031627D01*
X73393022Y-88024357D01*
X73368113Y-87955733D01*
X73366696Y-87951605D01*
X73346458Y-87889132D01*
X73346456Y-87889127D01*
X73344202Y-87882170D01*
X73340407Y-87875916D01*
X73337899Y-87870438D01*
X73335185Y-87865019D01*
X73332687Y-87858136D01*
X73292655Y-87797077D01*
X73290318Y-87793373D01*
X73255378Y-87735792D01*
X73255375Y-87735788D01*
X73252466Y-87730994D01*
X73244249Y-87721690D01*
X73242028Y-87719106D01*
X73239745Y-87716376D01*
X73235731Y-87710253D01*
X73183868Y-87661123D01*
X73181426Y-87658745D01*
X70795405Y-85272724D01*
X70761379Y-85210412D01*
X70758500Y-85183629D01*
X70758500Y-84091559D01*
X72378098Y-84091559D01*
X72378466Y-84095378D01*
X72378466Y-84095385D01*
X72408431Y-84406575D01*
X72408800Y-84410406D01*
X72478130Y-84723135D01*
X72585056Y-85025083D01*
X72727982Y-85311750D01*
X72730097Y-85314946D01*
X72730102Y-85314954D01*
X72842001Y-85484013D01*
X72904780Y-85578862D01*
X72907283Y-85581792D01*
X72907284Y-85581794D01*
X73088725Y-85794234D01*
X73112812Y-85822436D01*
X73348978Y-86038842D01*
X73352099Y-86041068D01*
X73352100Y-86041069D01*
X73385370Y-86064800D01*
X73609757Y-86224854D01*
X73891261Y-86377698D01*
X73894837Y-86379106D01*
X73894842Y-86379109D01*
X74093056Y-86457188D01*
X74189294Y-86495097D01*
X74193014Y-86496059D01*
X74193017Y-86496060D01*
X74237330Y-86507520D01*
X74499413Y-86575299D01*
X74503232Y-86575802D01*
X74503233Y-86575802D01*
X74813177Y-86616607D01*
X74813185Y-86616608D01*
X74816994Y-86617109D01*
X74820839Y-86617143D01*
X74820845Y-86617143D01*
X74968753Y-86618434D01*
X75137303Y-86619905D01*
X75141119Y-86619470D01*
X75141123Y-86619470D01*
X75344733Y-86596271D01*
X75455566Y-86583643D01*
X75767037Y-86508866D01*
X75770633Y-86507522D01*
X75770638Y-86507520D01*
X76063467Y-86398036D01*
X76063473Y-86398033D01*
X76067074Y-86396687D01*
X76070488Y-86394910D01*
X76070492Y-86394908D01*
X76347787Y-86250556D01*
X76347790Y-86250554D01*
X76351202Y-86248778D01*
X76615188Y-86067346D01*
X76655564Y-86031625D01*
X76852224Y-85857635D01*
X76855095Y-85855095D01*
X76981387Y-85712347D01*
X77064800Y-85618066D01*
X77064802Y-85618064D01*
X77067346Y-85615188D01*
X77248778Y-85351202D01*
X77269316Y-85311750D01*
X77394908Y-85070492D01*
X77394910Y-85070488D01*
X77396687Y-85067074D01*
X77411099Y-85028529D01*
X77507520Y-84770638D01*
X77507522Y-84770633D01*
X77508866Y-84767037D01*
X77583643Y-84455566D01*
X77619905Y-84137303D01*
X77623500Y-84000000D01*
X77603945Y-83680276D01*
X77545571Y-83365318D01*
X77449248Y-83059822D01*
X77355221Y-82853496D01*
X77318012Y-82771849D01*
X77318010Y-82771845D01*
X77316413Y-82768341D01*
X77314402Y-82765059D01*
X77151054Y-82498500D01*
X77151052Y-82498497D01*
X77149045Y-82495222D01*
X76949640Y-82244536D01*
X76721171Y-82020019D01*
X76718114Y-82017673D01*
X76470087Y-81827355D01*
X76470079Y-81827350D01*
X76467043Y-81825020D01*
X76264028Y-81705435D01*
X76194360Y-81664397D01*
X76194357Y-81664395D01*
X76191044Y-81662444D01*
X75897290Y-81534716D01*
X75893596Y-81533622D01*
X75893591Y-81533620D01*
X75759581Y-81493925D01*
X75590159Y-81443740D01*
X75274230Y-81390872D01*
X74954214Y-81376900D01*
X74794546Y-81389466D01*
X74638714Y-81401730D01*
X74638711Y-81401730D01*
X74634879Y-81402032D01*
X74320988Y-81465894D01*
X74169104Y-81516714D01*
X74020865Y-81566313D01*
X74020859Y-81566315D01*
X74017220Y-81567533D01*
X73728102Y-81705435D01*
X73724865Y-81707497D01*
X73724860Y-81707500D01*
X73627845Y-81769306D01*
X73457945Y-81877544D01*
X73454982Y-81879987D01*
X73454980Y-81879988D01*
X73213740Y-82078851D01*
X73213736Y-82078855D01*
X73210777Y-82081294D01*
X72990282Y-82313647D01*
X72799748Y-82571139D01*
X72797849Y-82574496D01*
X72688177Y-82768341D01*
X72642014Y-82849933D01*
X72519432Y-83145872D01*
X72518402Y-83149587D01*
X72434860Y-83450828D01*
X72434858Y-83450836D01*
X72433830Y-83454544D01*
X72386483Y-83771347D01*
X72378098Y-84091559D01*
X70758500Y-84091559D01*
X70758500Y-77483322D01*
X70778502Y-77415201D01*
X70838116Y-77366170D01*
X71070196Y-77274283D01*
X71144488Y-77233441D01*
X71343329Y-77124127D01*
X71343332Y-77124125D01*
X71346801Y-77122218D01*
X71503362Y-77008469D01*
X71598961Y-76939013D01*
X71598963Y-76939012D01*
X71602165Y-76936685D01*
X71621898Y-76918155D01*
X71829376Y-76723320D01*
X71832263Y-76720609D01*
X72033464Y-76477398D01*
X72191973Y-76227629D01*
X72200473Y-76214235D01*
X72200474Y-76214234D01*
X72202597Y-76210888D01*
X72204281Y-76207309D01*
X72204285Y-76207302D01*
X72335304Y-75928871D01*
X72335306Y-75928867D01*
X72336993Y-75925281D01*
X72434534Y-75625082D01*
X72493680Y-75315025D01*
X72513500Y-75000000D01*
X72493680Y-74684975D01*
X72434534Y-74374918D01*
X72336993Y-74074719D01*
X72319155Y-74036810D01*
X72266211Y-73924300D01*
X72255305Y-73854146D01*
X72284058Y-73789233D01*
X72291124Y-73781557D01*
X73177276Y-72895405D01*
X73239588Y-72861379D01*
X73266371Y-72858500D01*
X74032818Y-72858500D01*
X74100939Y-72878502D01*
X74147432Y-72932158D01*
X74157536Y-73002432D01*
X74128042Y-73067012D01*
X74090608Y-73096466D01*
X73905150Y-73192188D01*
X73669931Y-73357502D01*
X73666786Y-73360425D01*
X73666783Y-73360427D01*
X73495228Y-73519847D01*
X73459325Y-73553210D01*
X73456611Y-73556526D01*
X73456608Y-73556529D01*
X73279942Y-73772371D01*
X73279937Y-73772378D01*
X73277227Y-73775689D01*
X73127009Y-74020824D01*
X73125282Y-74024758D01*
X73125281Y-74024760D01*
X73101614Y-74078676D01*
X73011448Y-74284077D01*
X72932685Y-74560579D01*
X72892176Y-74845211D01*
X72890671Y-75132708D01*
X72928197Y-75417749D01*
X73004061Y-75695060D01*
X73005746Y-75699010D01*
X73115176Y-75955567D01*
X73115180Y-75955574D01*
X73116858Y-75959509D01*
X73264501Y-76206203D01*
X73267179Y-76209546D01*
X73267182Y-76209550D01*
X73354931Y-76319078D01*
X73444259Y-76430577D01*
X73447361Y-76433521D01*
X73447365Y-76433525D01*
X73594411Y-76573067D01*
X73652804Y-76628480D01*
X73886279Y-76796248D01*
X74140362Y-76930778D01*
X74410352Y-77029581D01*
X74691254Y-77090827D01*
X74719843Y-77093077D01*
X74913354Y-77108307D01*
X74913363Y-77108307D01*
X74915811Y-77108500D01*
X75073344Y-77108500D01*
X75075480Y-77108354D01*
X75075491Y-77108354D01*
X75282558Y-77094238D01*
X75282564Y-77094237D01*
X75286835Y-77093946D01*
X75291030Y-77093077D01*
X75291032Y-77093077D01*
X75427599Y-77064795D01*
X75568362Y-77035644D01*
X75821460Y-76946017D01*
X78418691Y-76946017D01*
X78427518Y-76957635D01*
X78650258Y-77119465D01*
X78656939Y-77123705D01*
X78926555Y-77271927D01*
X78933690Y-77275284D01*
X79219757Y-77388547D01*
X79227282Y-77390992D01*
X79525272Y-77467502D01*
X79533043Y-77468985D01*
X79838276Y-77507544D01*
X79846166Y-77508041D01*
X80153834Y-77508041D01*
X80161724Y-77507544D01*
X80466957Y-77468985D01*
X80474728Y-77467502D01*
X80772718Y-77390992D01*
X80780243Y-77388547D01*
X81066310Y-77275284D01*
X81073445Y-77271927D01*
X81343061Y-77123705D01*
X81349742Y-77119465D01*
X81572853Y-76957366D01*
X81581276Y-76946443D01*
X81574372Y-76933582D01*
X80012812Y-75372022D01*
X79998868Y-75364408D01*
X79997035Y-75364539D01*
X79990420Y-75368790D01*
X78425304Y-76933906D01*
X78418691Y-76946017D01*
X75821460Y-76946017D01*
X75839372Y-76939674D01*
X76094850Y-76807812D01*
X76330069Y-76642498D01*
X76398179Y-76579206D01*
X76537532Y-76449711D01*
X76537534Y-76449708D01*
X76540675Y-76446790D01*
X76543392Y-76443471D01*
X76720058Y-76227629D01*
X76720063Y-76227622D01*
X76722773Y-76224311D01*
X76872991Y-75979176D01*
X76874719Y-75975240D01*
X76986828Y-75719851D01*
X76986829Y-75719847D01*
X76988552Y-75715923D01*
X77067315Y-75439421D01*
X77107824Y-75154789D01*
X77108655Y-74996042D01*
X77487249Y-74996042D01*
X77487249Y-75003958D01*
X77506567Y-75310999D01*
X77507560Y-75318862D01*
X77565207Y-75621057D01*
X77567178Y-75628734D01*
X77662246Y-75921324D01*
X77665161Y-75928687D01*
X77796154Y-76207061D01*
X77799965Y-76213994D01*
X77964818Y-76473760D01*
X77969463Y-76480153D01*
X78044468Y-76570819D01*
X78056985Y-76579274D01*
X78067723Y-76573067D01*
X79627978Y-75012812D01*
X79634356Y-75001132D01*
X80364408Y-75001132D01*
X80364539Y-75002965D01*
X80368790Y-75009580D01*
X81931174Y-76571964D01*
X81944436Y-76579206D01*
X81954541Y-76572017D01*
X82030537Y-76480153D01*
X82035182Y-76473760D01*
X82200035Y-76213994D01*
X82203846Y-76207061D01*
X82334839Y-75928687D01*
X82337754Y-75921324D01*
X82432822Y-75628734D01*
X82434793Y-75621057D01*
X82492440Y-75318862D01*
X82493433Y-75310999D01*
X82512751Y-75003958D01*
X82512751Y-74996042D01*
X82493433Y-74689001D01*
X82492440Y-74681138D01*
X82434793Y-74378943D01*
X82432822Y-74371266D01*
X82337754Y-74078676D01*
X82334839Y-74071313D01*
X82203846Y-73792939D01*
X82200035Y-73786006D01*
X82035182Y-73526240D01*
X82030537Y-73519847D01*
X81955532Y-73429181D01*
X81943015Y-73420726D01*
X81932277Y-73426933D01*
X80372022Y-74987188D01*
X80364408Y-75001132D01*
X79634356Y-75001132D01*
X79635592Y-74998868D01*
X79635461Y-74997035D01*
X79631210Y-74990420D01*
X78068826Y-73428036D01*
X78055564Y-73420794D01*
X78045459Y-73427983D01*
X77969463Y-73519847D01*
X77964818Y-73526240D01*
X77799965Y-73786006D01*
X77796154Y-73792939D01*
X77665161Y-74071313D01*
X77662246Y-74078676D01*
X77567178Y-74371266D01*
X77565207Y-74378943D01*
X77507560Y-74681138D01*
X77506567Y-74689001D01*
X77487249Y-74996042D01*
X77108655Y-74996042D01*
X77109329Y-74867292D01*
X77071803Y-74582251D01*
X76995939Y-74304940D01*
X76968518Y-74240652D01*
X76884824Y-74044433D01*
X76884820Y-74044426D01*
X76883142Y-74040491D01*
X76735499Y-73793797D01*
X76729258Y-73786006D01*
X76558418Y-73572765D01*
X76555741Y-73569423D01*
X76552639Y-73566479D01*
X76552635Y-73566475D01*
X76350305Y-73374470D01*
X76350302Y-73374468D01*
X76347196Y-73371520D01*
X76113721Y-73203752D01*
X75909937Y-73095854D01*
X75859094Y-73046302D01*
X75843112Y-72977127D01*
X75867066Y-72910294D01*
X75923350Y-72867020D01*
X75968896Y-72858500D01*
X78312865Y-72858500D01*
X78380986Y-72878502D01*
X78427479Y-72932158D01*
X78437583Y-73002432D01*
X78418003Y-73048763D01*
X78417748Y-73051738D01*
X78425628Y-73066418D01*
X79987188Y-74627978D01*
X80001132Y-74635592D01*
X80002965Y-74635461D01*
X80009580Y-74631210D01*
X81574696Y-73066094D01*
X81582310Y-73052150D01*
X81582113Y-73049395D01*
X81561147Y-72994386D01*
X81575743Y-72924906D01*
X81625585Y-72874347D01*
X81686759Y-72858500D01*
X87333629Y-72858500D01*
X87401750Y-72878502D01*
X87422724Y-72895405D01*
X87664595Y-73137276D01*
X87698621Y-73199588D01*
X87701500Y-73226371D01*
X87701500Y-76765787D01*
X87681498Y-76833908D01*
X87627842Y-76880401D01*
X87562330Y-76891097D01*
X87530270Y-76887727D01*
X87525882Y-76887880D01*
X87525876Y-76887880D01*
X87253929Y-76897376D01*
X87253922Y-76897377D01*
X87249532Y-76897530D01*
X87245208Y-76898293D01*
X87245203Y-76898293D01*
X87132563Y-76918155D01*
X86972890Y-76946310D01*
X86705730Y-77033115D01*
X86701777Y-77035043D01*
X86701772Y-77035045D01*
X86591918Y-77088625D01*
X86453250Y-77156258D01*
X86449611Y-77158713D01*
X86449605Y-77158716D01*
X86342836Y-77230733D01*
X86220366Y-77313340D01*
X86011609Y-77501305D01*
X86008780Y-77504677D01*
X85833872Y-77713123D01*
X85833868Y-77713128D01*
X85831044Y-77716494D01*
X85682185Y-77954719D01*
X85567929Y-78211342D01*
X85490500Y-78481370D01*
X85451405Y-78759545D01*
X85451405Y-79040455D01*
X85452017Y-79044807D01*
X85482022Y-79258303D01*
X85490500Y-79318630D01*
X85567929Y-79588658D01*
X85682185Y-79845281D01*
X85831044Y-80083506D01*
X85833868Y-80086872D01*
X85833872Y-80086877D01*
X85920982Y-80190690D01*
X86011609Y-80298695D01*
X86220366Y-80486660D01*
X86224012Y-80489119D01*
X86449605Y-80641284D01*
X86449611Y-80641287D01*
X86453250Y-80643742D01*
X86584008Y-80707517D01*
X86701772Y-80764955D01*
X86701777Y-80764957D01*
X86705730Y-80766885D01*
X86972890Y-80853690D01*
X87098224Y-80875790D01*
X87245203Y-80901707D01*
X87245208Y-80901707D01*
X87249532Y-80902470D01*
X87253922Y-80902623D01*
X87253929Y-80902624D01*
X87525876Y-80912120D01*
X87525882Y-80912120D01*
X87530270Y-80912273D01*
X87534636Y-80911814D01*
X87534639Y-80911814D01*
X87805268Y-80883370D01*
X87805273Y-80883369D01*
X87809641Y-80882910D01*
X88082206Y-80814952D01*
X88197808Y-80768246D01*
X88338570Y-80711375D01*
X88338576Y-80711372D01*
X88342660Y-80709722D01*
X88346475Y-80707520D01*
X88346480Y-80707517D01*
X88461198Y-80641284D01*
X88585935Y-80569267D01*
X88695438Y-80483714D01*
X88803826Y-80399032D01*
X88803830Y-80399028D01*
X88807294Y-80396322D01*
X88901572Y-80298695D01*
X88999372Y-80197420D01*
X88999374Y-80197417D01*
X89002430Y-80194253D01*
X89005019Y-80190690D01*
X89164956Y-79970556D01*
X89164958Y-79970552D01*
X89167545Y-79966992D01*
X89169611Y-79963106D01*
X89169615Y-79963100D01*
X89297353Y-79722860D01*
X89297356Y-79722854D01*
X89299424Y-79718964D01*
X89345391Y-79592672D01*
X89393996Y-79459129D01*
X89393997Y-79459125D01*
X89395500Y-79454996D01*
X89437309Y-79258303D01*
X89471038Y-79195829D01*
X89533187Y-79161508D01*
X89560556Y-79158500D01*
X90438465Y-79158500D01*
X90506586Y-79178502D01*
X90553079Y-79232158D01*
X90563239Y-79266964D01*
X90570500Y-79318630D01*
X90647929Y-79588658D01*
X90762185Y-79845281D01*
X90911044Y-80083506D01*
X90913868Y-80086872D01*
X90913872Y-80086877D01*
X91000982Y-80190690D01*
X91091609Y-80298695D01*
X91300366Y-80486660D01*
X91304012Y-80489119D01*
X91529605Y-80641284D01*
X91529611Y-80641287D01*
X91533250Y-80643742D01*
X91664008Y-80707517D01*
X91781772Y-80764955D01*
X91781777Y-80764957D01*
X91785730Y-80766885D01*
X92052890Y-80853690D01*
X92178224Y-80875790D01*
X92325203Y-80901707D01*
X92325208Y-80901707D01*
X92329532Y-80902470D01*
X92333922Y-80902623D01*
X92333929Y-80902624D01*
X92605876Y-80912120D01*
X92605882Y-80912120D01*
X92610270Y-80912273D01*
X92614636Y-80911814D01*
X92614639Y-80911814D01*
X92885268Y-80883370D01*
X92885273Y-80883369D01*
X92889641Y-80882910D01*
X93162206Y-80814952D01*
X93277808Y-80768246D01*
X93418570Y-80711375D01*
X93418576Y-80711372D01*
X93422660Y-80709722D01*
X93426475Y-80707520D01*
X93426480Y-80707517D01*
X93541198Y-80641284D01*
X93665935Y-80569267D01*
X93775438Y-80483714D01*
X93883826Y-80399032D01*
X93883830Y-80399028D01*
X93887294Y-80396322D01*
X93981572Y-80298695D01*
X94079372Y-80197420D01*
X94079374Y-80197417D01*
X94082430Y-80194253D01*
X94085019Y-80190690D01*
X94244956Y-79970556D01*
X94244958Y-79970552D01*
X94247545Y-79966992D01*
X94249611Y-79963106D01*
X94249615Y-79963100D01*
X94377353Y-79722860D01*
X94377356Y-79722854D01*
X94379424Y-79718964D01*
X94425391Y-79592672D01*
X94473996Y-79459129D01*
X94473997Y-79459125D01*
X94475500Y-79454996D01*
X94533905Y-79180225D01*
X94553500Y-78900000D01*
X94533905Y-78619775D01*
X94475500Y-78345004D01*
X94428390Y-78215569D01*
X94380933Y-78085181D01*
X94380931Y-78085177D01*
X94379424Y-78081036D01*
X94377356Y-78077146D01*
X94377353Y-78077140D01*
X94249615Y-77836900D01*
X94249611Y-77836894D01*
X94247545Y-77833008D01*
X94160444Y-77713123D01*
X94085019Y-77609310D01*
X94085017Y-77609307D01*
X94082430Y-77605747D01*
X94045826Y-77567842D01*
X93890348Y-77406840D01*
X93890344Y-77406837D01*
X93887294Y-77403678D01*
X93883830Y-77400972D01*
X93883826Y-77400968D01*
X93669401Y-77233441D01*
X93669402Y-77233441D01*
X93665935Y-77230733D01*
X93533603Y-77154331D01*
X93426480Y-77092483D01*
X93426475Y-77092480D01*
X93422660Y-77090278D01*
X93418576Y-77088628D01*
X93418570Y-77088625D01*
X93166287Y-76986697D01*
X93162206Y-76985048D01*
X93051180Y-76957366D01*
X92985960Y-76941105D01*
X92889641Y-76917090D01*
X92885273Y-76916631D01*
X92885268Y-76916630D01*
X92614639Y-76888186D01*
X92614636Y-76888186D01*
X92610270Y-76887727D01*
X92605882Y-76887880D01*
X92605876Y-76887880D01*
X92333929Y-76897376D01*
X92333922Y-76897377D01*
X92329532Y-76897530D01*
X92325208Y-76898293D01*
X92325203Y-76898293D01*
X92212563Y-76918155D01*
X92052890Y-76946310D01*
X91785730Y-77033115D01*
X91781777Y-77035043D01*
X91781772Y-77035045D01*
X91671918Y-77088625D01*
X91533250Y-77156258D01*
X91529611Y-77158713D01*
X91529605Y-77158716D01*
X91422836Y-77230733D01*
X91300366Y-77313340D01*
X91091609Y-77501305D01*
X91011736Y-77596493D01*
X90952629Y-77635818D01*
X90915217Y-77641500D01*
X89344500Y-77641500D01*
X89276379Y-77621498D01*
X89229886Y-77567842D01*
X89218500Y-77515500D01*
X89218500Y-73136295D01*
X89238502Y-73068174D01*
X89292158Y-73021681D01*
X89362432Y-73011577D01*
X89377747Y-73015140D01*
X89377794Y-73014952D01*
X89650359Y-73082910D01*
X89654727Y-73083369D01*
X89654732Y-73083370D01*
X89925361Y-73111814D01*
X89925364Y-73111814D01*
X89929730Y-73112273D01*
X89934118Y-73112120D01*
X89934124Y-73112120D01*
X90206071Y-73102624D01*
X90206078Y-73102623D01*
X90210468Y-73102470D01*
X90214792Y-73101707D01*
X90214797Y-73101707D01*
X90361776Y-73075790D01*
X90487110Y-73053690D01*
X90754270Y-72966885D01*
X90758223Y-72964957D01*
X90758228Y-72964955D01*
X90908832Y-72891500D01*
X91006750Y-72843742D01*
X91010389Y-72841287D01*
X91010395Y-72841284D01*
X91178908Y-72727620D01*
X91239634Y-72686660D01*
X91448391Y-72498695D01*
X91539018Y-72390690D01*
X91626128Y-72286877D01*
X91626132Y-72286872D01*
X91628956Y-72283506D01*
X91777815Y-72045281D01*
X91892071Y-71788658D01*
X91969500Y-71518630D01*
X92008500Y-71241131D01*
X92008500Y-69028496D01*
X92003327Y-68954517D01*
X91994212Y-68824160D01*
X91994211Y-68824155D01*
X91993905Y-68819775D01*
X91935500Y-68545004D01*
X91888390Y-68415569D01*
X91840933Y-68285181D01*
X91840931Y-68285177D01*
X91839424Y-68281036D01*
X91837356Y-68277146D01*
X91837353Y-68277140D01*
X91709615Y-68036900D01*
X91709611Y-68036894D01*
X91707545Y-68033008D01*
X91701788Y-68025083D01*
X91545019Y-67809310D01*
X91545017Y-67809307D01*
X91542430Y-67805747D01*
X91508526Y-67770638D01*
X91350348Y-67606840D01*
X91350344Y-67606837D01*
X91347294Y-67603678D01*
X91343830Y-67600972D01*
X91343826Y-67600968D01*
X91129401Y-67433441D01*
X91129402Y-67433441D01*
X91125935Y-67430733D01*
X90993603Y-67354331D01*
X90886480Y-67292483D01*
X90886475Y-67292480D01*
X90882660Y-67290278D01*
X90878576Y-67288628D01*
X90878570Y-67288625D01*
X90626287Y-67186697D01*
X90622206Y-67185048D01*
X90349641Y-67117090D01*
X90345273Y-67116631D01*
X90345268Y-67116630D01*
X90074639Y-67088186D01*
X90074636Y-67088186D01*
X90070270Y-67087727D01*
X90065882Y-67087880D01*
X90065876Y-67087880D01*
X89793929Y-67097376D01*
X89793922Y-67097377D01*
X89789532Y-67097530D01*
X89785208Y-67098293D01*
X89785203Y-67098293D01*
X89672563Y-67118155D01*
X89512890Y-67146310D01*
X89245730Y-67233115D01*
X89241777Y-67235043D01*
X89241772Y-67235045D01*
X89131918Y-67288625D01*
X88993250Y-67356258D01*
X88989611Y-67358713D01*
X88989605Y-67358716D01*
X88846020Y-67455566D01*
X88760366Y-67513340D01*
X88551609Y-67701305D01*
X88530254Y-67726755D01*
X88373872Y-67913123D01*
X88373868Y-67913128D01*
X88371044Y-67916494D01*
X88222185Y-68154719D01*
X88107929Y-68411342D01*
X88030500Y-68681370D01*
X87991500Y-68958869D01*
X87991500Y-70683629D01*
X87971498Y-70751750D01*
X87954595Y-70772724D01*
X87422724Y-71304595D01*
X87360412Y-71338621D01*
X87333629Y-71341500D01*
X72965987Y-71341500D01*
X72947036Y-71340067D01*
X72933879Y-71338065D01*
X72933876Y-71338065D01*
X72926646Y-71336965D01*
X72919354Y-71337558D01*
X72919351Y-71337558D01*
X72875993Y-71341085D01*
X72865778Y-71341500D01*
X72857114Y-71341500D01*
X72853480Y-71341924D01*
X72853474Y-71341924D01*
X72843533Y-71343083D01*
X72827485Y-71344954D01*
X72823158Y-71345382D01*
X72793995Y-71347754D01*
X72757692Y-71350707D01*
X72757688Y-71350708D01*
X72750395Y-71351301D01*
X72743434Y-71353556D01*
X72737503Y-71354741D01*
X72731627Y-71356130D01*
X72724357Y-71356978D01*
X72655722Y-71381891D01*
X72651618Y-71383299D01*
X72647851Y-71384520D01*
X72589134Y-71403541D01*
X72589129Y-71403543D01*
X72582169Y-71405798D01*
X72575911Y-71409595D01*
X72570426Y-71412107D01*
X72565020Y-71414814D01*
X72558136Y-71417313D01*
X72497067Y-71457351D01*
X72493385Y-71459674D01*
X72430994Y-71497535D01*
X72426786Y-71501251D01*
X72426782Y-71501254D01*
X72421679Y-71505760D01*
X72419100Y-71507977D01*
X72416376Y-71510255D01*
X72410253Y-71514269D01*
X72405218Y-71519584D01*
X72361123Y-71566132D01*
X72358745Y-71568574D01*
X71221882Y-72705437D01*
X71159570Y-72739463D01*
X71088755Y-72734398D01*
X71077320Y-72729155D01*
X71077247Y-72729310D01*
X71073669Y-72727626D01*
X71070196Y-72725717D01*
X70776714Y-72609519D01*
X70470983Y-72531021D01*
X70157824Y-72491460D01*
X69842176Y-72491460D01*
X69529017Y-72531021D01*
X69223286Y-72609519D01*
X68929804Y-72725717D01*
X68926345Y-72727619D01*
X68926342Y-72727620D01*
X68672775Y-72867020D01*
X68653199Y-72877782D01*
X68496638Y-72991531D01*
X68411083Y-73053690D01*
X68397835Y-73063315D01*
X68394949Y-73066025D01*
X68394948Y-73066026D01*
X68363184Y-73095854D01*
X68167737Y-73279391D01*
X67966536Y-73522602D01*
X67850651Y-73705207D01*
X67802198Y-73781557D01*
X67797403Y-73789112D01*
X67795719Y-73792691D01*
X67795715Y-73792698D01*
X67679113Y-74040491D01*
X67663007Y-74074719D01*
X67565466Y-74374918D01*
X67506320Y-74684975D01*
X67486500Y-75000000D01*
X52600000Y-75000000D01*
X52600000Y-68958869D01*
X57991500Y-68958869D01*
X57991500Y-71171504D01*
X57991653Y-71173690D01*
X57991653Y-71173694D01*
X58003659Y-71345384D01*
X58006095Y-71380225D01*
X58064500Y-71654996D01*
X58066003Y-71659125D01*
X58066004Y-71659129D01*
X58114610Y-71792672D01*
X58160576Y-71918964D01*
X58162644Y-71922854D01*
X58162647Y-71922860D01*
X58290385Y-72163100D01*
X58290389Y-72163106D01*
X58292455Y-72166992D01*
X58295042Y-72170552D01*
X58295044Y-72170556D01*
X58454981Y-72390690D01*
X58457570Y-72394253D01*
X58460626Y-72397417D01*
X58460628Y-72397420D01*
X58590597Y-72532006D01*
X58652706Y-72596322D01*
X58656170Y-72599028D01*
X58656174Y-72599032D01*
X58816459Y-72724260D01*
X58874065Y-72769267D01*
X58998802Y-72841284D01*
X59113520Y-72907517D01*
X59113525Y-72907520D01*
X59117340Y-72909722D01*
X59121424Y-72911372D01*
X59121430Y-72911375D01*
X59312251Y-72988471D01*
X59377794Y-73014952D01*
X59382063Y-73016016D01*
X59382065Y-73016017D01*
X59503532Y-73046302D01*
X59650359Y-73082910D01*
X59654727Y-73083369D01*
X59654732Y-73083370D01*
X59925361Y-73111814D01*
X59925364Y-73111814D01*
X59929730Y-73112273D01*
X59934118Y-73112120D01*
X59934124Y-73112120D01*
X60206071Y-73102624D01*
X60206078Y-73102623D01*
X60210468Y-73102470D01*
X60214792Y-73101707D01*
X60214797Y-73101707D01*
X60361776Y-73075790D01*
X60487110Y-73053690D01*
X60754270Y-72966885D01*
X60758223Y-72964957D01*
X60758228Y-72964955D01*
X60908832Y-72891500D01*
X61006750Y-72843742D01*
X61010389Y-72841287D01*
X61010395Y-72841284D01*
X61178908Y-72727620D01*
X61239634Y-72686660D01*
X61448391Y-72498695D01*
X61539018Y-72390690D01*
X61626128Y-72286877D01*
X61626132Y-72286872D01*
X61628956Y-72283506D01*
X61777815Y-72045281D01*
X61892071Y-71788658D01*
X61969500Y-71518630D01*
X62008500Y-71241131D01*
X62008500Y-69028496D01*
X62003327Y-68954517D01*
X61994212Y-68824160D01*
X61994211Y-68824155D01*
X61993905Y-68819775D01*
X61935500Y-68545004D01*
X61888390Y-68415569D01*
X61840933Y-68285181D01*
X61840931Y-68285177D01*
X61839424Y-68281036D01*
X61837356Y-68277146D01*
X61837353Y-68277140D01*
X61709615Y-68036900D01*
X61709611Y-68036894D01*
X61707545Y-68033008D01*
X61701788Y-68025083D01*
X61545019Y-67809310D01*
X61545017Y-67809307D01*
X61542430Y-67805747D01*
X61508526Y-67770638D01*
X61350348Y-67606840D01*
X61350344Y-67606837D01*
X61347294Y-67603678D01*
X61343830Y-67600972D01*
X61343826Y-67600968D01*
X61129401Y-67433441D01*
X61129402Y-67433441D01*
X61125935Y-67430733D01*
X60993603Y-67354331D01*
X60886480Y-67292483D01*
X60886475Y-67292480D01*
X60882660Y-67290278D01*
X60878576Y-67288628D01*
X60878570Y-67288625D01*
X60626287Y-67186697D01*
X60622206Y-67185048D01*
X60349641Y-67117090D01*
X60345273Y-67116631D01*
X60345268Y-67116630D01*
X60074639Y-67088186D01*
X60074636Y-67088186D01*
X60070270Y-67087727D01*
X60065882Y-67087880D01*
X60065876Y-67087880D01*
X59793929Y-67097376D01*
X59793922Y-67097377D01*
X59789532Y-67097530D01*
X59785208Y-67098293D01*
X59785203Y-67098293D01*
X59672563Y-67118155D01*
X59512890Y-67146310D01*
X59245730Y-67233115D01*
X59241777Y-67235043D01*
X59241772Y-67235045D01*
X59131918Y-67288625D01*
X58993250Y-67356258D01*
X58989611Y-67358713D01*
X58989605Y-67358716D01*
X58846020Y-67455566D01*
X58760366Y-67513340D01*
X58551609Y-67701305D01*
X58530254Y-67726755D01*
X58373872Y-67913123D01*
X58373868Y-67913128D01*
X58371044Y-67916494D01*
X58222185Y-68154719D01*
X58107929Y-68411342D01*
X58030500Y-68681370D01*
X57991500Y-68958869D01*
X52600000Y-68958869D01*
X52600000Y-66026000D01*
X52620002Y-65957879D01*
X52673658Y-65911386D01*
X52726000Y-65900000D01*
X72432703Y-65900000D01*
X72500824Y-65920002D01*
G37*
%TD.AperFunction*%
%TD*%
M02*
